<?xml version="1.0" encoding="utf-8"?>
<svg xmlns="http://www.w3.org/2000/svg"
	xmlns:xlink="http://www.w3.org/1999/xlink"
	width="8px" height="17px" viewBox="0 0 8 17">
<path fillRule="evenodd" d="M 7.21 0.91C 7.21 1.79 7.21 3.38 7.21 3.38 7.21 3.38 5.38 3.19 4.92 3.89 4.67 4.27 4.82 5.39 4.8 6.19 5.6 6.19 6.42 6.19 7.22 6.19 7.02 7.12 6.87 7.76 6.72 8.57 6.03 8.57 4.79 8.57 4.79 8.57 4.79 8.57 4.79 16.23 4.79 16.23 4.79 16.23 2.5 16.23 1.43 16.23 1.43 13.87 1.43 11.11 1.43 8.6 0.9 8.6 0.52 8.6-0 8.6-0 7.71-0 7.07-0 6.19 0.5 6.19 0.9 6.19 1.41 6.19 1.48 4.42 1.51 2.68 2.39 1.79 3.38 0.79 4.32 0.91 7.21 0.91Z" fill="rgb(103,187,205)"/></svg>