<svg width="18" height="20" viewBox="0 0 18 20" xmlns="http://www.w3.org/2000/svg" xmlns:xlink="http://www.w3.org/1999/xlink"><title>CB614A02-DE67-468D-AA7E-13BB47D614F4</title><defs><path d="M8.7 14.9c-.2-.2-5.992-3.906-7.79-7.01C.013 6.286-.286 4.483.313 2.981.812 1.68 1.71.678 3.008.278 5.305-.523 7.702.678 9 2.38 10.398.478 12.995-.523 15.092.278c1.198.5 2.197 1.402 2.596 2.604.6 1.502.3 3.305-.599 5.007-1.797 3.305-7.49 6.81-7.79 7.01C9.2 15 9.1 15 9 15c-.1 0-.2 0-.3-.1z" id="a"/><mask id="b" x="0" y="0" width="18" height="15" fill="#fff"><use xlink:href="#a"/></mask></defs><use mask="url(#b)" xlink:href="#a" transform="translate(0 3)" stroke-width="2" stroke="#2F2E2E" fill="none" fill-rule="evenodd"/></svg>