<svg xmlns="http://www.w3.org/2000/svg" xmlns:xlink="http://www.w3.org/1999/xlink" preserveAspectRatio="xMidYMid" width="72" height="72" viewBox="0 0 72 72">
  <defs>
    <style>
      .cls-1 {
        fill: #3899ec;
      }

      .cls-2 {
        fill: #eaf7ff;
        fill-rule: evenodd;
      }
    </style>
  </defs>
  <g>
    <rect width="72" height="72" rx="8" ry="8" class="cls-1"/>
    <path d="M42.969,58.906 L42.969,36.906 L58.969,36.906 L58.969,58.906 L42.969,58.906 ZM48.969,26.906 L58.969,26.906 L58.969,34.906 L48.969,34.906 L48.969,26.906 ZM36.969,12.906 L58.969,12.906 L58.969,24.906 L36.969,24.906 L36.969,12.906 ZM12.969,12.906 L34.969,12.906 L34.969,34.906 L12.969,34.906 L12.969,12.906 ZM40.969,45.906 L12.969,45.906 L12.969,36.906 L40.969,36.906 L40.969,45.906 ZM36.969,26.906 L46.969,26.906 L46.969,34.906 L36.969,34.906 L36.969,26.906 ZM40.969,58.906 L12.969,58.906 L12.969,47.906 L40.969,47.906 L40.969,58.906 Z" class="cls-2"/>
  </g>
</svg>

