<?xml version="1.0" encoding="UTF-8" standalone="no"?>
<svg width="51px" height="51px" viewBox="0 0 51 51" version="1.1" xmlns="http://www.w3.org/2000/svg" xmlns:xlink="http://www.w3.org/1999/xlink">
    <!-- Generator: Sketch 41 (35326) - http://www.bohemiancoding.com/sketch -->
    <title>hor scroll selected</title>
    <desc>Created with Sketch.</desc>
    <defs></defs>
    <g id="Page-1" stroke="none" stroke-width="1" fill="none" fill-rule="evenodd">
        <g id="hor-scroll-selected" fill="#E8F6FE">
            <g id="Group-4" transform="translate(5.000000, 23.000000)">
                <polygon id="Fill-9-Copy-2" points="6 3 0 3 0 2 6 2"></polygon>
                <polygon id="Fill-11-Copy-2" points="3 5 6 5 6 4 3 4"></polygon>
                <polygon id="Fill-13-Copy-2" points="3 1 6 1 6 0 3 0"></polygon>
            </g>
            <path d="M13,14 L29,14 L29,21 L13,21 L13,14 Z M13,30 L29,30 L29,37 L13,37 L13,30 Z M22,22 L38,22 L38,29 L22,29 L22,22 Z M30,14 L38,14 L38,21 L30,21 L30,14 Z M30,30 L38,30 L38,37 L30,37 L30,30 Z M13,22 L21,22 L21,29 L13,29 L13,22 Z" id="Combined-Shape"></path>
        </g>
    </g>
</svg>