<svg id="icons" xmlns="http://www.w3.org/2000/svg" viewBox="0 0 133 96"><defs><style>.cls-1{fill:#eaf7ff;}.cls-2{fill:#fff;}.cls-3{fill:#555;}</style></defs><title>ions</title><polygon class="cls-1" points="65.458 24.385 56.984 43.006 56.869 42.75 53.991 37.343 46.57 53.5 86.448 53.5 76.274 31.307 72.155 39.677 65.458 24.385"/><polygon class="cls-2" points="61.065 36.895 63.909 41.798 67.806 35.135 70.304 39.409 71.935 36.507 66.757 24.385 61.065 36.895"/><path class="cls-3" d="M86.85669,53.5L76.72852,31.25488a0.52031,0.52031,0,0,0-.91016,0l-3.48584,7.6568-6.4054-14.894L65.918,23.99609A0.749,0.749,0,0,0,65.46387,23.5H65.458a0.75176,0.75176,0,0,0-.45508.48535l-8.0686,17.84332-2.50464-4.57086a0.51218,0.51218,0,0,0-.457-0.25977,0.50184,0.50184,0,0,0-.43652.293L46.16089,53.5H43.5v1h46v-1H86.85669ZM76.27344,32.66895L85.75793,53.5H66.78979ZM65.44336,25.624L70.0791,36.47754l-1.083,1.92676L66.9375,34.88281a0.49958,0.49958,0,0,0-.86328,0l-3.46289,5.92188-2.28516-3.9375ZM59.81458,37.97717l2.36218,4.07166a0.49945,0.49945,0,0,0,.43164.249h0.001a0.5,0.5,0,0,0,.43164-0.24957L66.50586,36.122l2.06738,3.53308a0.54341,0.54341,0,0,0,.43555.24207,0.51189,0.51189,0,0,0,.43164-0.26691l1.17554-2.1087,1.14587,2.64386L65.69116,53.5H52.75537Zm-5.78235.63708,2.38672,4.35443L51.65674,53.5H47.25952Z"/></svg>