<svg id="icons" xmlns="http://www.w3.org/2000/svg" viewBox="0 0 133 96"><defs><style>.cls-1{fill:#eaf7ff;}.cls-2{fill:#555;}</style></defs><title>ions</title><path class="cls-1" d="M60.125,37c0,5.0396,3.39984,9.125,7.59375,9.125S75.3125,42.0396,75.3125,37"/><path class="cls-2" d="M77.418,17.55078l0.28125-.959L73.834,15.457a0.5072,0.5072,0,0,0-.38965.0459,0.5009,0.5009,0,0,0-.23633.31348L70.07373,28.5H67.54565a6.29085,6.29085,0,0,0-6.09351-5.59375,6.03934,6.03934,0,0,0-6.15137,6.05566,6.26166,6.26166,0,0,0,4.78149,6.10583,11.32408,11.32408,0,0,0-.49927,3.568A7.88721,7.88721,0,0,0,66.8877,46.6673V53.5h-4v1h9v-1h-4V46.625a8.27673,8.27673,0,0,0,8.05566-7.98926,10.37744,10.37744,0,0,0-1.0459-4.55273c-0.53125-1.30566-.915-2.249-0.041-4.92773A0.50055,0.50055,0,0,0,74.38086,28.5H71.104l2.94971-11.93652ZM61.8877,23.949a4.94923,4.94923,0,0,1,2.41968.90179L61.8877,27.27051V23.949Zm-1,4.31165L57.907,25.27917a5.13592,5.13592,0,0,1,2.98071-1.31866v4.30017ZM61.30664,34.46a6.082,6.082,0,0,0,.59412-3.31055A8.81453,8.81453,0,0,0,61.5752,29.5h8.25146l-1.72974,7H60.73267A8.787,8.787,0,0,1,61.30664,34.46ZM66.542,28.5H61.8877V27.97754l2.82092-2.82092A5.43731,5.43731,0,0,1,66.542,28.5ZM57.5647,25.64392L60.41992,28.5h-4.073A4.95049,4.95049,0,0,1,57.5647,25.64392ZM59.6582,29.5l-2.425,2.425a5.35381,5.35381,0,0,1-.885-2.425H59.6582Zm-2.13135,2.83838L60.36523,29.5h0.158a5.567,5.567,0,0,1-.15405,4.51367l-0.042.11035A5.12894,5.12894,0,0,1,57.52686,32.33838Zm17.4165,6.29736C74.3877,48.125,60.596,47.75,60.583,38.63574c-0.0006-.41885.01611-0.789,0.04028-1.13574h7.22656l-0.96509,3.90527,0.9707,0.24023L68.87988,37.5h6.00244A6.699,6.699,0,0,1,74.94336,38.63574ZM73.707,29.5a6.31223,6.31223,0,0,0,.32568,4.96,11.74551,11.74551,0,0,1,.69165,2.04H69.127l1.73-7H73.707Z"/></svg>