<svg id="icons" xmlns="http://www.w3.org/2000/svg" viewBox="0 0 133 96"><defs><style>.cls-1{fill:#fff;}.cls-2{fill:#eaf7ff;}.cls-3{fill:#555;}</style></defs><title>ions</title><polygon class="cls-1" points="77.74 53.674 64.945 53.674 66.841 49.815 75.844 49.815 77.74 53.674"/><polygon class="cls-2" points="73.893 28.73 72.072 27.406 73.505 25.434 69.989 22.879 68.556 24.852 66.734 23.528 55.26 33.944 67.534 42.861 73.893 28.73"/><line class="cls-2" x1="61.41688" y1="38.37528" x2="69.01985" y2="27.90994"/><line class="cls-2" x1="58.33011" y1="36.13277" x2="67.2619" y2="26.63281"/><line class="cls-2" x1="64.48531" y1="40.60446" x2="70.7778" y2="29.18708"/><path class="cls-3" d="M78.18944,53.45325l-1.89551-3.8584a0.50209,0.50209,0,0,0-.44922-0.2793H72.1975l4.82593-11.71094a0.4995,0.4995,0,0,0-.12207-0.55762l-4.37781-4.0545,1.826-4.0578a0.50033,0.50033,0,0,0-.16211-0.60937l-1.418-1.0293,1.13965-1.56836a0.49885,0.49885,0,0,0-.11035-0.69824l-3.5166-2.55469a0.49885,0.49885,0,0,0-.69824.11035L68.4453,24.15344l-1.418-1.0293a0.4993,0.4993,0,0,0-.62988.03418l-11.47363,10.416a0.5,0.5,0,0,0,.042.77441l12.27441,8.917a0.501,0.501,0,0,0,.29395.0957,0.53047,0.53047,0,0,0,.12891-0.0166,0.50121,0.50121,0,0,0,.32715-0.27832l4.1001-9.11139,3.87646,3.5899-4.8501,11.77051H66.84081a0.50209,0.50209,0,0,0-.44922.2793l-1.89551,3.8584a0.5,0.5,0,0,0,.44922.7207H77.74022A0.5,0.5,0,0,0,78.18944,53.45325ZM67.33007,42.09583l-2.21094-1.6062,6.0957-11.06177-0.875-.48242-6.0354,10.95227-2.20959-1.60522,7.329-10.08826-0.80859-.58789L61.28612,37.7049l-2.22656-1.61761L67.626,26.97571l-0.72852-.68555-8.65381,9.20447-2.19287-1.59314L66.76854,24.172l1.49316,1.084a0.50009,0.50009,0,0,0,.69824-0.11035l1.13867-1.56836,2.708,1.9668L71.667,27.11243a0.49885,0.49885,0,0,0,.11035.69824l1.49316,1.085L71.31761,33.235l-0.0022.00244,0.00073,0.00073ZM65.748,53.174l1.4043-2.8584h8.38086l1.4043,2.8584H65.748Z"/></svg>