<svg id="icons" xmlns="http://www.w3.org/2000/svg" viewBox="0 0 75 75"><defs><style>.cls-1{fill:#11a1c6;}.cls-2{fill:#fff;}</style></defs><title>ions</title><circle class="cls-1" cx="37.5" cy="37.5" r="37.5"/><g id="Icons-2" data-name="Icons"><g id="Color-"><path id="Twitter" class="cls-2" d="M54.5,26.6875a13.62492,13.62492,0,0,1-4.00528,1.12556A7.137,7.137,0,0,0,53.562,23.85723a13.73849,13.73849,0,0,1-4.43234,1.73335,6.87917,6.87917,0,0,0-5.09093-2.25725,7.06551,7.06551,0,0,0-6.97283,7.1524,7.2981,7.2981,0,0,0,.17961,1.629A19.63875,19.63875,0,0,1,22.86685,24.639a7.28281,7.28281,0,0,0-.944,3.59974,7.19985,7.19985,0,0,0,3.10326,5.95317,6.84868,6.84868,0,0,1-3.16113-.89226v0.088a7.11122,7.11122,0,0,0,5.59782,7.01324,6.65144,6.65144,0,0,1-1.838.25171,6.77566,6.77566,0,0,1-1.31314-.12688,7.00206,7.00206,0,0,0,6.51581,4.96473A13.77347,13.77347,0,0,1,22.16437,48.554,13.95987,13.95987,0,0,1,20.5,48.45576a19.4212,19.4212,0,0,0,10.69272,3.21091c12.83208,0,19.8468-10.89743,19.8468-20.35007,0-.31106-0.006-0.62213-0.018-0.92705A14.31645,14.31645,0,0,0,54.5,26.6875"/></g></g></svg>