<?xml version="1.0" encoding="UTF-8" standalone="no"?>
<svg width="90px" height="90px" viewBox="0 0 90 90" version="1.1" xmlns="http://www.w3.org/2000/svg" xmlns:xlink="http://www.w3.org/1999/xlink">
    <!-- Generator: Sketch 42 (36781) - http://www.bohemiancoding.com/sketch -->
    <title> illustraion</title>
    <desc>Created with Sketch.</desc>
    <defs>
        <rect id="path-1" x="0" y="0" width="42" height="42" rx="4"></rect>
        <rect id="path-3" x="0" y="0" width="42" height="42" rx="4"></rect>
        <rect id="path-5" x="0" y="0" width="42" height="42" rx="4"></rect>
        <rect id="path-7" x="0" y="0" width="42" height="42" rx="4"></rect>
    </defs>
    <g id="Symbols" stroke="none" stroke-width="1" fill="none" fill-rule="evenodd">
        <g id="illustration">
            <g id="4" transform="translate(0.000000, 48.000000)">
                <mask id="mask-2" fill="white">
                    <use xlink:href="#path-1"></use>
                </mask>
                <use id="Mask" fill="#D3EDFF" xlink:href="#path-1"></use>
                <path d="M16.2059776,13.9500258 L17.8517214,13.9500258 L23.5834497,27.3429751 L21.4647911,27.3429751 L20.1217128,24.0325709 L13.7468203,24.0325709 L12.4226586,27.3429751 L10.304,27.3429751 L16.2059776,13.9500258 Z M19.459632,22.443577 L16.9626414,16.2956836 L16.9248083,16.2956836 L14.3899845,22.443577 L19.459632,22.443577 Z M24.9265279,19.4736715 C25.4057507,19.0322821 25.960632,18.701245 26.5911883,18.4805503 C27.2217446,18.2598556 27.8522915,18.1495099 28.4828478,18.1495099 C29.1386264,18.1495099 29.7029658,18.231481 30.1758831,18.3954256 C30.6488003,18.5593703 31.0365866,18.7800617 31.3392537,19.0575064 C31.6419207,19.3349512 31.8657648,19.6533774 32.0107928,20.0127945 C32.1558207,20.3722116 32.2283336,20.747387 32.2283336,21.1383319 L32.2283336,25.7161479 C32.2283336,26.0314261 32.2346391,26.3214776 32.2472502,26.5863113 C32.2598613,26.8511449 32.2787777,27.1033637 32.304,27.3429751 L30.7906724,27.3429751 C30.752839,26.8889745 30.7339226,26.4349808 30.7339226,25.9809802 L30.6960894,25.9809802 C30.3177556,26.561092 29.8700674,26.9709475 29.3530112,27.2105589 C28.835955,27.4501703 28.2369355,27.5699742 27.5559347,27.5699742 C27.1397675,27.5699742 26.742523,27.513225 26.3641892,27.3997248 C25.9858554,27.2862247 25.6548183,27.1159771 25.3710679,26.8889768 C25.0873176,26.6619765 24.8634734,26.3813832 24.6995288,26.0471883 C24.5355842,25.7129935 24.4536131,25.3252071 24.4536131,24.8838177 C24.4536131,24.3037059 24.5828752,23.8181848 24.8414033,23.4272399 C25.0999314,23.036295 25.4530376,22.7178688 25.9007326,22.4719518 C26.3484276,22.2260349 26.8717815,22.0494818 27.47081,21.9422872 C28.0698385,21.8350926 28.7098435,21.7814961 29.3908444,21.7814961 L30.6393396,21.7814961 L30.6393396,21.4031642 C30.6393396,21.176164 30.5952014,20.9491671 30.5069235,20.7221668 C30.4186456,20.4951665 30.2862307,20.2902388 30.109675,20.1073775 C29.9331192,19.9245161 29.7124278,19.7794904 29.4475942,19.6722958 C29.1827605,19.5651012 28.8674871,19.5115047 28.5017644,19.5115047 C28.1738751,19.5115047 27.8869763,19.5430321 27.6410593,19.6060877 C27.3951424,19.6691433 27.1712982,19.7479617 26.9695202,19.8425451 C26.7677422,19.9371286 26.5848836,20.0474743 26.420939,20.1735856 C26.2569943,20.2996968 26.0993576,20.4195007 25.9480241,20.5330009 L24.9265279,19.4736715 Z M29.7313431,23.0299914 C29.327787,23.0299914 28.9147788,23.0520605 28.4923061,23.0961995 C28.0698334,23.1403384 27.6851998,23.2254623 27.3383938,23.3515735 C26.9915878,23.4776848 26.7078417,23.6542379 26.487147,23.8812382 C26.2664523,24.1082385 26.1561066,24.39829 26.1561066,24.7514015 C26.1561066,25.2684577 26.329507,25.6404804 26.676313,25.8674807 C27.023119,26.0944809 27.4928764,26.2079794 28.0855993,26.2079794 C28.552211,26.2079794 28.9494555,26.129161 29.2773448,25.9715219 C29.6052341,25.8138828 29.8700638,25.6089551 30.0718418,25.3567326 C30.2736198,25.1045101 30.4186456,24.8239167 30.5069235,24.5149441 C30.5952014,24.2059715 30.6393396,23.9001563 30.6393396,23.5974893 L30.6393396,23.0299914 L29.7313431,23.0299914 Z" id="Aa" fill="#4EB7F5"></path>
            </g>
            <g id="3" transform="translate(48.000000, 0.000000)">
                <mask id="mask-4" fill="white">
                    <use xlink:href="#path-3"></use>
                </mask>
                <use id="Mask" fill="#D3EDFF" xlink:href="#path-3"></use>
                <polygon id="Path-3" fill="#D3EDFF" mask="url(#mask-4)" points="12.2264151 24 17.6603774 24 36 42 0 42 0 37.3333333"></polygon>
                <polyline id="Path-3-Copy" fill="#4EB7F5" mask="url(#mask-4)" points="36 42 0 42 0 37.3333333 12.2264151 24 17.6603774 24"></polyline>
                <polygon id="Path-4" fill="#ACE0FF" mask="url(#mask-4)" points="22.902439 35.6666667 28.8292683 29 32.7804878 29 42 38.3333333 42 43 15 43"></polygon>
                <circle id="Oval-5-Copy" fill="#7FCCF7" mask="url(#mask-4)" cx="31" cy="16" r="4"></circle>
                <polygon id="Path-5" fill="#3899EC" opacity="0.40286847" mask="url(#mask-4)" points="6 31 15.0434783 31 17.1304348 28.2 22 28.2 17.826087 24 12.2608696 24"></polygon>
                <polygon id="Path-5-Copy" fill="#7FCCF7" opacity="0.40286847" mask="url(#mask-4)" points="24 35 30.7826087 35 32.3478261 32.6 36 32.6 32.8695652 29 28.6956522 29"></polygon>
            </g>
            <g id="2">
                <g id="Rectangle-2">
                    <mask id="mask-6" fill="white">
                        <use xlink:href="#path-5"></use>
                    </mask>
                    <use id="Mask" fill="#D3EDFF" xlink:href="#path-5"></use>
                    <rect fill="#7FCCF7" mask="url(#mask-6)" x="-1" y="31" width="44" height="11"></rect>
                </g>
                <circle id="Oval-3" fill="#ACE0FF" cx="8" cy="19" r="2"></circle>
                <path d="M30.5,8.5 L36.5,22.5" id="Line" stroke="#ACE0FF" stroke-linecap="square"></path>
                <polygon id="Triangle-2" fill="#45ABF1" transform="translate(5.200000, 36.000000) rotate(-180.000000) translate(-5.200000, -36.000000) " points="4 36 6.4 34 6.4 38"></polygon>
                <path d="M10,36.5 L36.5178515,36.5" id="Line" stroke="#45ABF1" stroke-linecap="square"></path>
                <circle id="Oval-5" stroke="#45ABF1" fill="#EAF7FF" cx="13.5" cy="36.5" r="1.5"></circle>
            </g>
            <g id="1" transform="translate(48.000000, 48.000000)">
                <mask id="mask-8" fill="white">
                    <use xlink:href="#path-7"></use>
                </mask>
                <use id="Mask" fill="#D3EDFF" xlink:href="#path-7"></use>
                <rect id="Rectangle-4" fill="#E3F3FC" mask="url(#mask-8)" x="-4" y="-3" width="50" height="26"></rect>
                <g id="Group-2" mask="url(#mask-8)">
                    <g transform="translate(6.000000, 19.000000)">
                        <rect id="Rectangle-16" fill="#4EB7F5" x="6" y="8" width="3.82352941" height="15.3779871"></rect>
                        <polygon id="Triangle" fill="#7FCCF7" points="8 2 16 20 0 20"></polygon>
                        <polygon id="Triangle-Copy" fill="#99D7FC" points="8 2 15 14.5 1 14.5"></polygon>
                        <polygon id="Triangle-Copy-2" fill="#ACE0FF" points="8 0 15 9.5 1 9.5"></polygon>
                    </g>
                </g>
                <polygon id="Shape" fill="#7FCCF7" mask="url(#mask-8)" points="32.574219 11.5703042 34.79 10.8930426 32.574219 10.2157809 31.8969574 8 31.2157809 10.2157809 29 10.8930426 31.2157809 11.5703042 31.8969574 13.79"></polygon>
            </g>
        </g>
    </g>
</svg>