<?xml version="1.0" encoding="UTF-8" standalone="no"?>
<svg width="38px" height="38px" viewBox="0 0 38 38" version="1.1" xmlns="http://www.w3.org/2000/svg" xmlns:xlink="http://www.w3.org/1999/xlink">
    <!-- Generator: Sketch 41 (35326) - http://www.bohemiancoding.com/sketch -->
    <title>hor alignment right</title>
    <desc>Created with Sketch.</desc>
    <defs></defs>
    <g id="Page-1" stroke="none" stroke-width="1" fill="none" fill-rule="evenodd">
        <g id="hor-alignment-right">
            <g id="thmb-align-right-reg" transform="translate(10.000000, 9.000000)">
                <g id="Page-1">
                    <g>
                        <g id="thmb-align-right-reg">
                            <g id="Page-1">
                                <g id="Group">
                                    <g id="thmb-align-right-reg">
                                        <path d="M13,4 C13,2.895 12.105,2 11,2 L5,2 C3.895,2 3,2.895 3,4 L3,7 C3,8.105 3.895,9 5,9 L11,9 C12.105,9 13,8.105 13,7 L13,4" id="Fill-285" fill="#3899EC"></path>
                                        <path d="M13,13 C13,11.895 12.105,11 11,11 L2,11 C0.895,11 0,11.895 0,13 L0,16 C0,17.105 0.895,18 2,18 L11,18 C12.105,18 13,17.105 13,16 L13,13 L13,13 Z M15,0 L17,0 L17,20 L15,20 L15,0 L15,0 Z" id="Fill-286" fill="#7FCCF7"></path>
                                    </g>
                                </g>
                            </g>
                        </g>
                    </g>
                </g>
            </g>
        </g>
    </g>
</svg>