<svg xmlns="http://www.w3.org/2000/svg" xmlns:xlink="http://www.w3.org/1999/xlink" preserveAspectRatio="xMidYMid" width="72" height="72" viewBox="0 0 72 72">
  <defs>
    <style>
      .cls-1 {
              fill: #3899ec;
            }

            .cls-2 {
              fill: #eaf7ff;
              fill-rule: evenodd;
            }
    </style>
  </defs>
  <g>
    <rect width="72" height="72" rx="8" ry="8" class="cls-1"/>
    <path d="M37.000,58.906 L37.000,42.906 L59.000,42.906 L59.000,58.906 L37.000,58.906 ZM48.000,12.906 L59.000,12.906 L59.000,40.906 L48.000,40.906 L48.000,12.906 ZM37.000,12.906 L46.000,12.906 L46.000,40.906 L37.000,40.906 L37.000,12.906 ZM27.000,47.906 L35.000,47.906 L35.000,58.906 L27.000,58.906 L27.000,47.906 ZM27.000,36.906 L35.000,36.906 L35.000,45.906 L27.000,45.906 L27.000,36.906 ZM13.000,12.906 L35.000,12.906 L35.000,34.906 L13.000,34.906 L13.000,12.906 ZM25.000,58.906 L13.000,58.906 L13.000,36.906 L25.000,36.906 L25.000,58.906 Z" class="cls-2"/>
  </g>
</svg>
