<svg id="Layer_1" data-name="Layer 1" xmlns="http://www.w3.org/2000/svg" viewBox="0 0 23 16"><defs><style>.cls-1{fill:#121212;}</style></defs><title>mail</title><path class="cls-1" d="M22.8,1A2,2,0,0,0,21,0H2A1.93,1.93,0,0,0,.24,1L11.5,9.47Z" transform="translate(0 0)"/><path class="cls-1" d="M13.57,9.29l-2,1.63-2-1.59L1,15.66A2,2,0,0,0,2,16H21a2,2,0,0,0,.94-.3l-3.22-2.53Z" transform="translate(0 0)"/><path class="cls-1" d="M0,2V13.9a2,2,0,0,0,.29,1L8.68,8.56Z" transform="translate(0 0)"/><path class="cls-1" d="M14.35,8.54l8.41,6.33a2,2,0,0,0,.24-1V2Z" transform="translate(0 0)"/></svg>