<?xml version="1.0" encoding="utf-8"?>
<!-- Generator: Adobe Illustrator 19.2.0, SVG Export Plug-In . SVG Version: 6.00 Build 0)  -->
<svg version="1.1" id="Layer_1" xmlns="http://www.w3.org/2000/svg" xmlns:xlink="http://www.w3.org/1999/xlink" x="0px" y="0px"
	 width="36px" height="8px" viewBox="0 0 36 8" enable-background="new 0 0 36 8" xml:space="preserve">
<g>
	<g>
		<path fill-rule="evenodd" clip-rule="evenodd" d="M4,0C1.8,0,0,1.8,0,4c0,2.2,1.8,4,4,4c2.2,0,4-1.8,4-4C8,1.8,6.2,0,4,0z M18,0
			c-2.2,0-4,1.8-4,4c0,2.2,1.8,4,4,4c2.2,0,4-1.8,4-4C22,1.8,20.2,0,18,0z M32,0c-2.2,0-4,1.8-4,4c0,2.2,1.8,4,4,4c2.2,0,4-1.8,4-4
			C36,1.8,34.2,0,32,0z"/>
	</g>
</g>
</svg>
