<?xml version="1.0" encoding="utf-8"?>
<!-- Generator: Adobe Illustrator 19.2.0, SVG Export Plug-In . SVG Version: 6.00 Build 0)  -->
<svg version="1.1" id="Layer_1" xmlns="http://www.w3.org/2000/svg" xmlns:xlink="http://www.w3.org/1999/xlink" x="0px" y="0px"
	 width="20.5px" height="16px" viewBox="0 0 20.5 16" enable-background="new 0 0 20.5 16" xml:space="preserve">
<path fill="#231F20" d="M10.5,16c-0.1,0-0.2,0-0.3-0.1L5,12.3H0.5c-0.3,0-0.5-0.2-0.5-0.5V4.2c0-0.3,0.2-0.5,0.5-0.5H5l5.2-3.6
	c0.2-0.1,0.4-0.1,0.5,0c0.2,0,0.3,0.2,0.3,0.4v15c0,0.2-0.1,0.4-0.3,0.4C10.7,16,10.6,16,10.5,16z M1,11.3h4.2c0.1,0,0.2,0,0.3,0.1
	l4.5,3.1V1.4L5.4,4.6c0,0-0.1,0.1-0.2,0.1H1V11.3z"/>
<rect x="16.5" y="3.5" transform="matrix(0.7071 -0.7071 0.7071 0.7071 -0.6824 14.3284)" fill="#231F20" width="1" height="8.9"/>
<rect x="12.5" y="7.5" transform="matrix(0.7071 -0.7071 0.7071 0.7071 -0.6992 14.3355)" fill="#231F20" width="8.9" height="1"/>
</svg>
