<?xml version="1.0" encoding="utf-8"?>
<svg xmlns="http://www.w3.org/2000/svg"
	xmlns:xlink="http://www.w3.org/1999/xlink"
	width="15px" height="15px" viewBox="0 0 15 15">
<filter filterUnits="objectBoundingBox" x="0.00" y="0.00" width="100.00" height="100.00" id="filter0">
<feFlood flood-color="rgb(73,73,75)" result="coFloodOut1"/>
<feComposite in="coFloodOut1" in2="SourceAlpha" operator="in" result="coOverlay1"/>
<feBlend in="coOverlay1" in2="SourceGraphic" mode="normal" result="colorOverlay1"/>
</filter>
<path fillRule="evenodd" d="M 15 8C 15 8 8 8 8 8 8 8 8 15 8 15 8 15 7 15 7 15 7 15 7 8 7 8 7 8-0 8-0 8-0 8-0 7-0 7-0 7 7 7 7 7 7 7 7 0 7 0 7 0 8 0 8 0 8 0 8 7 8 7 8 7 15 7 15 7 15 7 15 8 15 8Z" fill="rgb(0,0,0)" filter="url(#filter0)"/></svg>