<?xml version="1.0" encoding="utf-8"?>
<!-- Generator: Adobe Illustrator 19.2.0, SVG Export Plug-In . SVG Version: 6.00 Build 0)  -->
<svg version="1.1" id="Layer_1" xmlns="http://www.w3.org/2000/svg" xmlns:xlink="http://www.w3.org/1999/xlink" x="0px" y="0px"
	 width="14.8px" height="15px" viewBox="0 0 14.8 15" enable-background="new 0 0 14.8 15" xml:space="preserve">
<g>
	<path d="M14.8,3.7c0-0.1,0-0.3-0.1-0.4l-3.2-3.2C11.3,0,11,0,10.8,0.1s-0.2,0.5,0,0.7l2.3,2.3h-2.7c-3.6,0-5.5,2.1-5.5,4.3v3.7
		c0,0.3,0.2,0.5,0.5,0.5s0.5-0.2,0.5-0.5V7.4c0-1.6,1.5-3.3,4.5-3.3h2.7l-2.4,2.4c-0.2,0.2-0.2,0.5,0,0.7c0.1,0.1,0.2,0.1,0.4,0.1
		s0.3,0,0.4-0.1L14.7,4C14.8,3.9,14.8,3.8,14.8,3.7C14.8,3.7,14.8,3.7,14.8,3.7C14.8,3.7,14.8,3.7,14.8,3.7z"/>
	<path d="M14.3,8.5c-0.3,0-0.5,0.2-0.5,0.5v5H1V1h5.9c0.3,0,0.5-0.2,0.5-0.5S7.2,0,6.9,0H0.5C0.2,0,0,0.2,0,0.5v14
		C0,14.8,0.2,15,0.5,15h13.8c0.3,0,0.5-0.2,0.5-0.5V9C14.8,8.7,14.6,8.5,14.3,8.5z"/>
</g>
</svg>
