<?xml version="1.0" encoding="UTF-8" standalone="no"?>
<svg width="34px" height="34px" viewBox="0 0 34 34" version="1.1" xmlns="http://www.w3.org/2000/svg" xmlns:xlink="http://www.w3.org/1999/xlink" xmlns:sketch="http://www.bohemiancoding.com/sketch/ns">
    <!-- Generator: Sketch 3.3.2 (12043) - http://www.bohemiancoding.com/sketch -->
    <title>character-spacing-bld-reg-up</title>
    <desc>Created with Sketch.</desc>
    <defs></defs>
    <g id="Page-1" stroke="none" stroke-width="1" fill="none" fill-rule="evenodd" sketch:type="MSPage">
        <g id="character-spacing-bld-reg-up" sketch:type="MSArtboardGroup" fill="#1D2D3C">
            <g id="Imported-Layers" sketch:type="MSLayerGroup" transform="translate(7.000000, 10.000000)">
                <path d="M4.046,6 L7,6 L8,9 L10.5,9 L7,1 C6.746,0.481 6.076,0 5.5,0 C4.923,0 4.253,0.483 4,1 L0.5,9 L3,9 L4.046,6 L4.046,6 Z M5.5,2 L6.504,4 L4.5,4 L5.5,2 L5.5,2 Z" id="Fill-1" sketch:type="MSShapeGroup"></path>
                <path d="M14.5,9 C15.076,9 15.746,8.519 16,8 L19.5,0 L17,0 L14.5,7 L12,0 L9.5,0 L13,8 C13.253,8.517 13.923,9 14.5,9" id="Fill-2" sketch:type="MSShapeGroup"></path>
                <path d="M15,12 L4,12 L4,10 L0,13 L4,16 L4,14 L15,14 L15,16 L19,13 L15,10 L15,12" id="Fill-3" sketch:type="MSShapeGroup"></path>
            </g>
        </g>
    </g>
</svg>