<?xml version="1.0" encoding="UTF-8" standalone="no"?>
<svg width="34px" height="34px" viewBox="0 0 34 34" version="1.1" xmlns="http://www.w3.org/2000/svg" xmlns:xlink="http://www.w3.org/1999/xlink" xmlns:sketch="http://www.bohemiancoding.com/sketch/ns">
    <!-- Generator: Sketch 3.3.2 (12043) - http://www.bohemiancoding.com/sketch -->
    <title>indent-ltr-decrease-bld-reg-up</title>
    <desc>Created with Sketch.</desc>
    <defs></defs>
    <g id="Page-1" stroke="none" stroke-width="1" fill="none" fill-rule="evenodd" sketch:type="MSPage">
        <g id="indent-ltr-decrease-bld-reg-up" sketch:type="MSArtboardGroup" fill="#1D2D3C">
            <g id="Imported-Layers" sketch:type="MSLayerGroup" transform="translate(10.000000, 10.000000)">
                <path d="M1,0 L14,0 L14,2 L1,2 L1,0 Z" id="Fill-1" sketch:type="MSShapeGroup"></path>
                <path d="M1,12 L14,12 L14,14 L1,14 L1,12 Z" id="Fill-2" sketch:type="MSShapeGroup"></path>
                <path d="M7,3 L14,3 L14,5 L7,5 L7,3 Z" id="Fill-3" sketch:type="MSShapeGroup"></path>
                <path d="M7,9 L14,9 L14,11 L7,11 L7,9 Z" id="Fill-4" sketch:type="MSShapeGroup"></path>
                <path d="M7,6 L14,6 L14,8 L7,8 L7,6 Z" id="Fill-5" sketch:type="MSShapeGroup"></path>
                <path d="M3.868,9.88 C3.663,9.88 3.456,9.817 3.277,9.686 L0,7 L3.277,4.073 C3.724,3.748 4.348,3.843 4.676,4.288 C5.002,4.733 4.906,5.359 4.461,5.686 L3,7 L4.461,8.073 C4.906,8.4 5.002,9.026 4.676,9.472 C4.479,9.738 4.176,9.88 3.868,9.88" id="Fill-6" sketch:type="MSShapeGroup"></path>
            </g>
        </g>
    </g>
</svg>