<?xml version="1.0" encoding="UTF-8" standalone="no"?>
<svg width="34px" height="34px" viewBox="0 0 34 34" version="1.1" xmlns="http://www.w3.org/2000/svg" xmlns:xlink="http://www.w3.org/1999/xlink" xmlns:sketch="http://www.bohemiancoding.com/sketch/ns">
    <!-- Generator: Sketch 3.3.2 (12043) - http://www.bohemiancoding.com/sketch -->
    <title>numeric-list-ltr-bld-reg-up</title>
    <desc>Created with Sketch.</desc>
    <defs></defs>
    <g id="Page-1" stroke="none" stroke-width="1" fill="none" fill-rule="evenodd" sketch:type="MSPage">
        <g id="numeric-list-ltr-bld-reg-up" sketch:type="MSArtboardGroup" fill="#1D2D3C">
            <g id="Imported-Layers" sketch:type="MSLayerGroup" transform="translate(9.000000, 9.000000)">
                <path d="M5,13 L15,13 L15,15 L5,15 L5,13 Z" id="Fill-1" sketch:type="MSShapeGroup"></path>
                <path d="M5,7 L15,7 L15,9 L5,9 L5,7 Z" id="Fill-2" sketch:type="MSShapeGroup"></path>
                <path d="M5,1 L15,1 L15,3 L5,3 L5,1 Z" id="Fill-3" sketch:type="MSShapeGroup"></path>
                <path d="M0,0 L0,1 L1,1 L1,4 L2,4 L2,0 L0,0" id="Fill-4" sketch:type="MSShapeGroup"></path>
                <path d="M3,10 L0,10 C0.003,9 0,9 0,9 L2.078,7 L0,7 L0,6 L3,6 L3,6.992 L1.078,9 L3,9 L3,10" id="Fill-5" sketch:type="MSShapeGroup"></path>
                <path d="M2,15 L1,14 L2,13 L0,13 L0,12 L3,12 L3,12.992 L2,13.992 L3,14.992 L3,16 L0,16 L0,15 L2,15" id="Fill-6" sketch:type="MSShapeGroup"></path>
            </g>
        </g>
    </g>
</svg>