<?xml version="1.0" encoding="UTF-8" standalone="no"?>
<svg width="34px" height="34px" viewBox="0 0 34 34" version="1.1" xmlns="http://www.w3.org/2000/svg" xmlns:xlink="http://www.w3.org/1999/xlink" xmlns:sketch="http://www.bohemiancoding.com/sketch/ns">
    <!-- Generator: Sketch 3.3.2 (12043) - http://www.bohemiancoding.com/sketch -->
    <title>remove-formatimg-bld-reg-up</title>
    <desc>Created with Sketch.</desc>
    <defs></defs>
    <g id="Page-1" stroke="none" stroke-width="1" fill="none" fill-rule="evenodd" sketch:type="MSPage">
        <g id="remove-formatimg-bld-reg-up" sketch:type="MSArtboardGroup" fill="#1D2D3C">
            <g id="Imported-Layers" sketch:type="MSLayerGroup" transform="translate(8.000000, 10.000000)">
                <path d="M14,6 L14,3 C14,1.343 12.657,0 11,0 L3,0 C1.35,0 0,1.35 0,3 L0,6 L2,6 L2,3 C2,2.448 2.448,2 3,2 L6,2 L6,12 L4,12 L4,14 L10,14 L10,12 L8,12 L8,2 L11,2 C11.552,2 12,2.448 12,3 L12,6 L14,6" id="Fill-1" sketch:type="MSShapeGroup"></path>
                <path d="M16.889,10.956 L18.362,9.483 C18.711,9.133 18.711,8.567 18.362,8.218 C18.014,7.868 17.445,7.868 17.097,8.218 L15.624,9.691 L14.151,8.218 C13.803,7.868 13.234,7.868 12.886,8.218 C12.537,8.567 12.537,9.133 12.886,9.483 L14.359,10.956 L12.886,12.428 C12.537,12.778 12.537,13.344 12.886,13.693 C13.06,13.868 13.289,13.956 13.519,13.956 C13.748,13.956 13.977,13.868 14.151,13.693 L15.624,12.22 L17.097,13.693 C17.271,13.868 17.5,13.956 17.73,13.956 C17.959,13.956 18.188,13.868 18.362,13.693 C18.711,13.344 18.711,12.778 18.362,12.428 L16.889,10.956" id="Fill-2" sketch:type="MSShapeGroup"></path>
            </g>
        </g>
    </g>
</svg>