<?xml version="1.0" encoding="UTF-8" standalone="no"?>
<svg width="34px" height="34px" viewBox="0 0 34 34" version="1.1" xmlns="http://www.w3.org/2000/svg" xmlns:xlink="http://www.w3.org/1999/xlink" xmlns:sketch="http://www.bohemiancoding.com/sketch/ns">
    <!-- Generator: Sketch 3.3.2 (12043) - http://www.bohemiancoding.com/sketch -->
    <title>underlined-bld-reg-up</title>
    <desc>Created with Sketch.</desc>
    <defs></defs>
    <g id="Page-1" stroke="none" stroke-width="1" fill="none" fill-rule="evenodd" sketch:type="MSPage">
        <g id="underlined-bld-reg-up" sketch:type="MSArtboardGroup" fill="#1D2D3C">
            <g id="Imported-Layers" sketch:type="MSLayerGroup" transform="translate(12.000000, 10.000000)">
                <path d="M5.5,11.232 C2.935,11.232 1,9.176 1,6.449 L1,1 C1,0.447 1.448,0 2,0 C2.552,0 3,0.447 3,1 L3,6.449 C3,7.832 3.859,9.232 5.5,9.232 C7.141,9.232 8,7.832 8,6.449 L8,1 C8,0.447 8.448,0 9,0 C9.552,0 10,0.447 10,1 L10,6.449 C10,9.176 8.065,11.232 5.5,11.232" id="Fill-1" sketch:type="MSShapeGroup"></path>
                <path d="M0,13 L11,13 L11,15 L0,15 L0,13 Z" id="Fill-2" sketch:type="MSShapeGroup"></path>
            </g>
        </g>
    </g>
</svg>