<?xml version="1.0" encoding="utf-8"?>
<!-- Generator: Adobe Illustrator 19.2.0, SVG Export Plug-In . SVG Version: 6.00 Build 0)  -->
<svg version="1.1" id="Layer_1" xmlns="http://www.w3.org/2000/svg" xmlns:xlink="http://www.w3.org/1999/xlink" x="0px" y="0px"
	 width="22.9px" height="16px" viewBox="0 0 22.9 16" enable-background="new 0 0 22.9 16" xml:space="preserve">
<path fill="#231F20" d="M10.5,16c-0.1,0-0.2,0-0.3-0.1L5,12.3H0.5c-0.3,0-0.5-0.2-0.5-0.5V4.2c0-0.3,0.2-0.5,0.5-0.5H5l5.2-3.6
	c0.2-0.1,0.4-0.1,0.5,0C10.9,0.1,11,0.3,11,0.5v15c0,0.2-0.1,0.4-0.3,0.4C10.7,16,10.6,16,10.5,16z M1,11.3h4.2c0.1,0,0.2,0,0.3,0.1
	l4.5,3.1V1.4L5.4,4.6C5.4,4.6,5.3,4.7,5.2,4.7H1V11.3z"/>
<path fill="#231F20" d="M16.6,14.2c-0.1,0-0.3,0-0.4-0.1c-0.2-0.2-0.2-0.5,0-0.7c3-3,3-7.8,0-10.8c-0.2-0.2-0.2-0.5,0-0.7
	s0.5-0.2,0.7,0c3.4,3.4,3.4,8.8,0,12.2C16.9,14.2,16.8,14.2,16.6,14.2z"/>
<path fill="#231F20" d="M19.3,15.9c-0.1,0-0.3,0-0.4-0.1c-0.2-0.2-0.2-0.5,0-0.7c1.9-1.9,2.9-4.4,2.9-7s-1-5.2-2.9-7
	c-0.2-0.2-0.2-0.5,0-0.7s0.5-0.2,0.7,0c2.1,2.1,3.2,4.8,3.2,7.7c0,2.9-1.1,5.7-3.2,7.7C19.5,15.8,19.4,15.9,19.3,15.9z"/>
<path fill="#231F20" d="M14,12.6c-0.1,0-0.3,0-0.4-0.1c-0.2-0.2-0.2-0.5,0-0.7c2-2,2-5.4,0-7.4c-0.2-0.2-0.2-0.5,0-0.7
	s0.5-0.2,0.7,0c2.4,2.4,2.4,6.4,0,8.8C14.2,12.5,14.1,12.6,14,12.6z"/>
</svg>
