<?xml version="1.0" encoding="UTF-8" standalone="no"?>
<svg width="72px" height="72px" viewBox="0 0 72 72" version="1.1" xmlns="http://www.w3.org/2000/svg" xmlns:xlink="http://www.w3.org/1999/xlink">
    <!-- Generator: Sketch 41 (35326) - http://www.bohemiancoding.com/sketch -->
    <title>Collage</title>
    <desc>Created with Sketch.</desc>
    <defs></defs>
    <g id="Page-1" stroke="none" stroke-width="1" fill="none" fill-rule="evenodd">
        <g id="Collage" fill="#7FCCF7">
            <g id="Group" transform="translate(13.000000, 13.000000)">
                <path d="M0,0 L22,0 L22,22 L0,22 L0,0 Z M24,0 L46,0 L46,12 L24,12 L24,0 Z M30,24 L46,24 L46,46 L30,46 L30,24 Z M0,24 L28,24 L28,33 L0,33 L0,24 Z M0,35 L28,35 L28,46 L0,46 L0,35 Z M24,14 L34,14 L34,22 L24,22 L24,14 Z M36,14 L46,14 L46,22 L36,22 L36,14 Z" id="Combined-Shape"></path>
            </g>
        </g>
    </g>
</svg>