<?xml version="1.0" encoding="UTF-8" standalone="no"?>
<svg width="28px" height="28px" viewBox="0 0 28 28" version="1.1" xmlns="http://www.w3.org/2000/svg" xmlns:xlink="http://www.w3.org/1999/xlink" xmlns:sketch="http://www.bohemiancoding.com/sketch/ns">
    <!-- Generator: Sketch 3.4.2 (15855) - http://www.bohemiancoding.com/sketch -->
    <title>Artboard 1</title>
    <desc>Created with Sketch.</desc>
    <defs></defs>
    <g id="Page-1" stroke="none" stroke-width="1" fill="none" fill-rule="evenodd" sketch:type="MSPage">
        <g id="Artboard-1" sketch:type="MSArtboardGroup">
            <g id="Page-1" sketch:type="MSLayerGroup" transform="translate(1.000000, 1.000000)">
                <path d="M13,24.5003 C6.659,24.5003 1.5,19.3413 1.5,13.0003 C1.5,6.6583 6.659,1.5003 13,1.5003 C19.341,1.5003 24.5,6.6583 24.5,13.0003 C24.5,19.3413 19.341,24.5003 13,24.5003" id="Fill-1" fill="#C2D7E6" sketch:type="MSShapeGroup"></path>
                <path d="M13,0 C5.832,0 0,5.832 0,13 C0,20.168 5.832,26 13,26 C20.168,26 26,20.168 26,13 C26,5.832 20.168,0 13,0 M13,3 C18.523,3 23,7.477 23,13 C23,18.523 18.523,23 13,23 C7.477,23 3,18.523 3,13 C3,7.477 7.477,3 13,3" id="Fill-3" fill="#FFFFFF" sketch:type="MSShapeGroup"></path>
            </g>
        </g>
    </g>
</svg>