<svg id="Layer_1" data-name="Layer 1" xmlns="http://www.w3.org/2000/svg" viewBox="0 0 61 61"><defs><style>.cls-1{fill:none;}.cls-2{fill:#121212;}</style></defs><title>succsses_v</title><path class="cls-1" d="M33,9A29.5,29.5,0,1,0,62.5,38.5,29.53,29.53,0,0,0,33,9Zm-.75,41.72-12.11-12,.7-.71,11.3,11.15,15-20,.8.6Z" transform="translate(-2.5 -8)"/><polygon class="cls-2" points="29.64 41.2 18.34 30.05 17.64 30.77 29.75 42.72 45.4 21.82 44.6 21.22 29.64 41.2"/><path class="cls-2" d="M33,8A30.5,30.5,0,1,0,63.5,38.5,30.53,30.53,0,0,0,33,8Zm0,60A29.5,29.5,0,1,1,62.5,38.5,29.53,29.53,0,0,1,33,68Z" transform="translate(-2.5 -8)"/></svg>