<?xml version="1.0" encoding="UTF-8" standalone="no"?>
<svg width="27px" height="27px" viewBox="0 0 27 27" version="1.1" xmlns="http://www.w3.org/2000/svg" xmlns:xlink="http://www.w3.org/1999/xlink" xmlns:sketch="http://www.bohemiancoding.com/sketch/ns">
    <!-- Generator: Sketch 3.4.2 (15855) - http://www.bohemiancoding.com/sketch -->
    <title>show</title>
    <desc>Created with Sketch.</desc>
    <defs>
        <path id="path-1" d="M0,0 L13,0 L13,10 L0,10 L0,0 Z"></path>
    </defs>
    <g id="Page-1" stroke="none" stroke-width="1" fill="none" fill-rule="evenodd" sketch:type="MSPage">
        <g id="show" sketch:type="MSArtboardGroup">
            <circle id="Oval-1" fill="#3899EC" sketch:type="MSShapeGroup" cx="13.5" cy="13.5" r="12.5"></circle>
            <g id="Page-1" sketch:type="MSLayerGroup" transform="translate(7.000000, 9.000000)">
                <mask id="mask-2" sketch:name="Clip 2" fill="white">
                    <use xlink:href="#path-1"></use>
                </mask>
                <g id="Clip-2"></g>
                <path d="M6.4962,6.4856 C5.6512,6.4856 4.9372,5.8056 4.9372,5.0006 C4.9372,4.1926 5.6512,3.5116 6.4962,3.5116 C7.2872,3.5116 7.8832,4.1516 7.8832,5.0006 C7.8832,5.8476 7.2872,6.4856 6.4962,6.4856 L6.4962,6.4856 Z M6.4962,2.5196 C5.1142,2.5196 3.9472,3.6556 3.9472,5.0006 C3.9472,6.3436 5.1142,7.4766 6.4962,7.4766 C7.8292,7.4766 8.8732,6.3886 8.8732,5.0006 C8.8732,3.6096 7.8292,2.5196 6.4962,2.5196 L6.4962,2.5196 Z M6.3972,9.0086 C3.1642,9.0086 1.4552,5.8076 1.0752,4.9986 C1.4552,4.1906 3.1642,0.9916 6.3972,0.9916 C9.6212,0.9916 11.4742,4.1606 11.9072,4.9986 C11.4742,5.8366 9.6212,9.0086 6.3972,9.0086 L6.3972,9.0086 Z M12.9122,4.7986 C12.8252,4.6026 10.7442,-0.0004 6.3972,-0.0004 C2.0372,-0.0004 0.1512,4.6186 0.0732,4.8156 L0.0002,4.9986 L0.0722,5.1816 C0.1512,5.3776 2.0372,9.9996 6.3972,9.9996 C10.7442,9.9996 12.8252,5.3946 12.9122,5.1986 L13.0002,4.9986 L12.9122,4.7986 Z" id="Fill-1" fill="#FFFFFF" sketch:type="MSShapeGroup" mask="url(#mask-2)"></path>
            </g>
        </g>
    </g>
</svg>