<?xml version="1.0" encoding="UTF-8" standalone="no"?>
<svg width="18px" height="18px" viewBox="0 0 18 18" version="1.1" xmlns="http://www.w3.org/2000/svg" xmlns:xlink="http://www.w3.org/1999/xlink">
    <!-- Generator: Sketch 46.2 (44496) - http://www.bohemiancoding.com/sketch -->
    <title>Inputs / Primitives / Success Bubble - Large</title>
    <desc>Created with Sketch.</desc>
    <defs></defs>
    <g id="Symbols" stroke="none" stroke-width="1" fill="none" fill-rule="evenodd">
        <g id="02-Inputs-/-Primitives-/-Error-Bubble---Large">
            <g id="Error-Bubble">
                <path d="M9,0 C13.97025,0 18,4.02975 18,9 C18,13.97025 13.97025,18 9,18 C4.02975,18 0,13.97025 0,9 C0,4.02975 4.02975,0 9,0" id="Fill-32-Copy-2" fill="#EE5951"></path>
                <path d="M9,5.25 L9,5.25 C9.414,5.25 9.75,5.586 9.75,6 L9.75,9.75 C9.75,10.164 9.414,10.5 9,10.5 C8.586,10.5 8.25,10.164 8.25,9.75 L8.25,6 C8.25,5.586 8.586,5.25 9,5.25" id="Fill-33-Copy-2" fill="#FFFFFF"></path>
                <path d="M9,12 L9,12 C9.414,12 9.75,12.336 9.75,12.75 C9.75,13.164 9.414,13.5 9,13.5 C8.586,13.5 8.25,13.164 8.25,12.75 C8.25,12.336 8.586,12 9,12" id="Fill-34-Copy-2" fill="#FFFFFF"></path>
            </g>
        </g>
    </g>
</svg>