<?xml version="1.0" encoding="UTF-8" standalone="no"?>
<svg width="16px" height="16px" viewBox="0 0 16 16" version="1.1" xmlns="http://www.w3.org/2000/svg" xmlns:xlink="http://www.w3.org/1999/xlink" xmlns:sketch="http://www.bohemiancoding.com/sketch/ns">
    <!-- Generator: Sketch 3.3 (11970) - http://www.bohemiancoding.com/sketch -->
    <title>L_Settings</title>
    <desc>Created with Sketch.</desc>
    <defs></defs>
    <g id="Page-1" stroke="none" stroke-width="1" fill="none" fill-rule="evenodd" sketch:type="MSPage">
        <path d="M15.196,6.339 L13.663,6.032 C13.586,5.811 13.496,5.596 13.395,5.388 L14.263,4.086 C14.527,3.689 14.475,3.161 14.138,2.824 L13.176,1.862 C12.983,1.669 12.727,1.569 12.468,1.569 C12.276,1.569 12.083,1.625 11.914,1.737 L10.612,2.605 C10.404,2.504 10.189,2.414 9.967,2.337 L9.661,0.804 C9.567,0.336 9.157,0 8.68,0 L7.32,0 C6.843,0 6.433,0.336 6.339,0.804 L6.032,2.337 C5.81,2.414 5.596,2.504 5.388,2.605 L4.086,1.737 C3.917,1.625 3.724,1.569 3.532,1.569 C3.273,1.569 3.018,1.669 2.824,1.862 L1.862,2.824 C1.525,3.161 1.473,3.689 1.737,4.086 L2.605,5.388 C2.504,5.596 2.414,5.811 2.337,6.033 L0.804,6.339 C0.336,6.433 0,6.843 0,7.32 L0,8.68 C0,9.157 0.336,9.567 0.804,9.661 L2.337,9.968 C2.414,10.189 2.504,10.404 2.605,10.612 L1.737,11.914 C1.473,12.311 1.525,12.839 1.862,13.176 L2.824,14.138 C3.018,14.331 3.273,14.431 3.532,14.431 C3.724,14.431 3.917,14.375 4.086,14.263 L5.388,13.395 C5.596,13.496 5.811,13.586 6.033,13.663 L6.339,15.196 C6.433,15.664 6.843,16 7.32,16 L8.68,16 C9.157,16 9.567,15.664 9.661,15.196 L9.968,13.663 C10.19,13.586 10.404,13.496 10.612,13.395 L11.914,14.263 C12.084,14.375 12.276,14.431 12.468,14.431 C12.727,14.431 12.983,14.331 13.176,14.138 L14.138,13.176 C14.475,12.839 14.527,12.311 14.263,11.914 L13.395,10.612 C13.496,10.404 13.586,10.189 13.663,9.967 L15.196,9.661 C15.663,9.567 16,9.157 16,8.68 L16,7.32 C16,6.843 15.663,6.433 15.196,6.339 L15.196,6.339 Z M13.467,8.987 C13.12,9.056 12.835,9.304 12.719,9.639 C12.654,9.823 12.58,10.002 12.495,10.176 C12.34,10.495 12.366,10.872 12.563,11.167 L13.431,12.469 L12.469,13.431 L11.167,12.563 C11,12.452 10.807,12.395 10.612,12.395 C10.464,12.395 10.315,12.428 10.177,12.495 C10.003,12.579 9.824,12.654 9.639,12.719 C9.305,12.835 9.057,13.12 8.987,13.467 L8.68,15 L7.32,15 L7.013,13.467 C6.944,13.12 6.696,12.835 6.361,12.719 C6.177,12.654 5.997,12.58 5.824,12.495 C5.686,12.428 5.537,12.395 5.388,12.395 C5.193,12.395 5,12.452 4.833,12.563 L3.531,13.431 L2.569,12.469 L3.437,11.167 C3.633,10.872 3.659,10.496 3.505,10.177 C3.421,10.003 3.346,9.824 3.281,9.639 C3.165,9.305 2.88,9.057 2.533,8.987 L1,8.68 L1,7.32 L2.533,7.013 C2.88,6.944 3.165,6.696 3.281,6.361 C3.346,6.177 3.42,5.998 3.505,5.824 C3.66,5.505 3.634,5.128 3.437,4.833 L2.569,3.531 L3.531,2.569 L4.833,3.437 C5,3.548 5.193,3.605 5.388,3.605 C5.536,3.605 5.685,3.572 5.823,3.505 C5.997,3.421 6.176,3.346 6.361,3.281 C6.695,3.165 6.943,2.88 7.013,2.533 L7.32,1 L8.68,1 L8.987,2.533 C9.056,2.88 9.304,3.165 9.639,3.281 C9.823,3.346 10.003,3.42 10.176,3.505 C10.315,3.572 10.464,3.605 10.612,3.605 C10.807,3.605 11,3.548 11.167,3.437 L12.469,2.569 L13.431,3.531 L12.563,4.833 C12.367,5.128 12.341,5.505 12.495,5.823 C12.579,5.997 12.654,6.176 12.719,6.361 C12.835,6.695 13.12,6.943 13.467,7.013 L15,7.32 L15,8.68 L13.467,8.987 L13.467,8.987 Z M7.974,5.577 C6.627,5.577 5.536,6.667 5.536,8.012 C5.536,9.358 6.627,10.448 7.974,10.448 C9.321,10.448 10.411,9.358 10.411,8.012 C10.411,6.667 9.321,5.577 7.974,5.577 L7.974,5.577 Z M8,9.5 C7.172,9.5 6.5,8.828 6.5,8 C6.5,7.172 7.172,6.5 8,6.5 C8.828,6.5 9.5,7.172 9.5,8 C9.5,8.828 8.828,9.5 8,9.5 L8,9.5 Z" id="L_Settings" fill="#3899ec" sketch:type="MSShapeGroup"></path>
    </g>
</svg>