<?xml version="1.0" encoding="UTF-8" standalone="no"?>
<svg width="60px" height="60px" viewBox="0 0 60 60" version="1.1" xmlns="http://www.w3.org/2000/svg" xmlns:xlink="http://www.w3.org/1999/xlink">
    <!-- Generator: Sketch 42 (36781) - http://www.bohemiancoding.com/sketch -->
    <title>Store Icon</title>
    <desc>Created with Sketch.</desc>
    <defs>
        <polygon id="path-1" points="2.75 6 29.3333333 6 33 30 24 35 0 35"></polygon>
        <mask id="mask-2" maskContentUnits="userSpaceOnUse" maskUnits="objectBoundingBox" x="0" y="0" width="33" height="29" fill="white">
            <use xlink:href="#path-1"></use>
        </mask>
        <path d="M8,7 C8.5434366,2.00466176 11.4705661,0 15,0 C18.5294339,0 21.4565634,2.00466176 22,7 L8,7 Z" id="path-3"></path>
        <mask id="mask-4" maskContentUnits="userSpaceOnUse" maskUnits="objectBoundingBox" x="0" y="0" width="14" height="7" fill="white">
            <use xlink:href="#path-3"></use>
        </mask>
    </defs>
    <g id="fav" stroke="none" stroke-width="1" fill="none" fill-rule="evenodd">
        <g id="Store-Icon">
            <path d="M30,60 C13.431,60 0,46.569 0,30 C0,13.431 13.431,0 30,0 C46.569,0 60,13.431 60,30 C60,46.569 46.569,60 30,60 Z" id="Fill-1" fill="#733CA6" fill-rule="nonzero"></path>
            <g id="Group-4" transform="translate(14.000000, 10.000000)">
                <polygon id="Path-4" fill="#5D2195" points="26 7 29 7 32 30 24 34"></polygon>
                <use id="Rectangle-7" stroke="#FFFFFF" mask="url(#mask-2)" stroke-width="2" xlink:href="#path-1"></use>
                <path d="M26,7 L24,34" id="Line" stroke="#FFFFFF" stroke-linecap="square"></path>
                <use id="Combined-Shape" stroke="#FFFFFF" mask="url(#mask-4)" stroke-width="2" xlink:href="#path-3"></use>
            </g>
            <path d="M21,33.0592 C26,34.0592 30,44.0592 30,44.0592 L14,44.0592 C14,44.0592 16,32.0592 21,33.0592 Z" id="Triangle" fill-opacity="0.419999987" fill="#FFFFFF"></path>
            <path d="M30,32.2105761 C34,34.2795245 36,44 36,44 L20,44 C20,44 26,30.1416277 30,32.2105761 Z" id="Triangle" fill="#9D73C4"></path>
            <circle id="Oval-3" fill-opacity="0.660000026" fill="#FFFFFF" cx="32" cy="24" r="3"></circle>
        </g>
    </g>
</svg>