<?xml version="1.0" encoding="UTF-8" standalone="no"?>
<svg width="72px" height="72px" viewBox="0 0 72 72" version="1.1" xmlns="http://www.w3.org/2000/svg" xmlns:xlink="http://www.w3.org/1999/xlink">
    <!-- Generator: Sketch 42 (36781) - http://www.bohemiancoding.com/sketch -->
    <title>5</title>
    <desc>Created with Sketch.</desc>
    <defs></defs>
    <g id="cart" stroke="none" stroke-width="1" fill="none" fill-rule="evenodd">
        <g id="5" fill="#3899EC">
            <path d="M21.7975,32.785 C21.5374987,32.4469983 21.2081687,32.1870009 20.8095,32.005 C20.4108313,31.8229991 19.9991688,31.732 19.5745,31.732 C19.0544974,31.732 18.5843354,31.829499 18.164,32.0245 C17.7436646,32.219501 17.3840015,32.4859983 17.085,32.824 C16.7859985,33.1620017 16.5541675,33.5584977 16.3895,34.0135 C16.2248325,34.4685023 16.1425,34.9559974 16.1425,35.476 C16.1425,35.9613358 16.2204992,36.4206645 16.3765,36.854 C16.5325008,37.2873355 16.7578319,37.668665 17.0525,37.998 C17.3471681,38.327335 17.7068312,38.5873324 18.1315,38.778 C18.5561688,38.9686676 19.037164,39.064 19.5745,39.064 C20.1031693,39.064 20.5668313,38.9556678 20.9655,38.739 C21.3641687,38.5223322 21.7021653,38.2190019 21.9795,37.829 L23.0325,38.622 C22.9631663,38.7173338 22.8418342,38.8538324 22.6685,39.0315 C22.4951658,39.2091676 22.2655014,39.3868324 21.9795,39.5645 C21.6934986,39.7421676 21.349002,39.898166 20.946,40.0325 C20.542998,40.166834 20.0771693,40.234 19.5485,40.234 C18.8204964,40.234 18.1640029,40.0953347 17.579,39.818 C16.9939971,39.5406653 16.4956687,39.1766689 16.084,38.726 C15.6723313,38.2753311 15.3581677,37.7661695 15.1415,37.1985 C14.9248323,36.6308305 14.8165,36.0566696 14.8165,35.476 C14.8165,34.7653298 14.9334988,34.1088363 15.1675,33.5065 C15.4015012,32.9041637 15.7286646,32.3841689 16.149,31.9465 C16.5693354,31.5088311 17.0741637,31.1686679 17.6635,30.926 C18.2528363,30.6833321 18.9028298,30.562 19.6135,30.562 C20.2201697,30.562 20.8159971,30.6789988 21.401,30.913 C21.9860029,31.1470012 22.4648315,31.5066642 22.8375,31.992 L21.7975,32.785 Z M24.2675,34.592 C24.596835,34.2886651 24.9781645,34.0611674 25.4115,33.9095 C25.8448355,33.7578326 26.2781645,33.682 26.7115,33.682 C27.1621689,33.682 27.5499984,33.7383328 27.875,33.851 C28.2000016,33.9636672 28.466499,34.1153324 28.6745,34.306 C28.882501,34.4966676 29.0363328,34.7154988 29.136,34.9625 C29.2356672,35.2095012 29.2855,35.467332 29.2855,35.736 L29.2855,38.882 C29.2855,39.0986678 29.2898333,39.2979991 29.2985,39.48 C29.3071667,39.6620009 29.3201666,39.8353325 29.3375,40 L28.2975,40 C28.2714999,39.6879984 28.2585,39.3760016 28.2585,39.064 L28.2325,39.064 C27.9724987,39.4626687 27.6648351,39.7443325 27.3095,39.909 C26.9541649,40.0736675 26.5425023,40.156 26.0745,40.156 C25.7884986,40.156 25.5155013,40.1170004 25.2555,40.039 C24.9954987,39.9609996 24.768001,39.8440008 24.573,39.688 C24.377999,39.5319992 24.2241672,39.3391678 24.1115,39.1095 C23.9988328,38.8798322 23.9425,38.6133349 23.9425,38.31 C23.9425,37.9113313 24.0313324,37.577668 24.209,37.309 C24.3866676,37.040332 24.6293318,36.8215008 24.937,36.6525 C25.2446682,36.4834992 25.6043313,36.362167 26.016,36.2885 C26.4276687,36.214833 26.8674977,36.178 27.3355,36.178 L28.1935,36.178 L28.1935,35.918 C28.1935,35.7619992 28.163167,35.6060008 28.1025,35.45 C28.041833,35.2939992 27.9508339,35.1531673 27.8295,35.0275 C27.7081661,34.9018327 27.5565009,34.802167 27.3745,34.7285 C27.1924991,34.654833 26.9758346,34.618 26.7245,34.618 C26.4991655,34.618 26.3020008,34.6396664 26.133,34.683 C25.9639992,34.7263335 25.8101674,34.7804997 25.6715,34.8455 C25.5328326,34.9105003 25.4071672,34.9863329 25.2945,35.073 C25.1818328,35.1596671 25.0735005,35.2419996 24.9695,35.32 L24.2675,34.592 Z M27.5695,37.036 C27.2921653,37.036 27.0083348,37.0511665 26.718,37.0815 C26.4276652,37.1118335 26.1633345,37.1703329 25.925,37.257 C25.6866655,37.3436671 25.4916674,37.4649992 25.34,37.621 C25.1883326,37.7770008 25.1125,37.9763321 25.1125,38.219 C25.1125,38.5743351 25.2316655,38.8299992 25.47,38.986 C25.7083345,39.1420008 26.0311646,39.22 26.4385,39.22 C26.7591683,39.22 27.0321655,39.1658339 27.2575,39.0575 C27.4828345,38.9491661 27.6648326,38.8083342 27.8035,38.635 C27.9421674,38.4616658 28.041833,38.2688344 28.1025,38.0565 C28.163167,37.8441656 28.1935,37.634001 28.1935,37.426 L28.1935,37.036 L27.5695,37.036 Z M30.9885,33.838 L32.1585,33.838 L32.1585,34.787 L32.1845,34.787 C32.2625004,34.6223325 32.3664993,34.472834 32.4965,34.3385 C32.6265006,34.204166 32.7716659,34.0893338 32.932,33.994 C33.0923341,33.8986662 33.2678324,33.8228336 33.4585,33.7665 C33.6491676,33.7101664 33.8398324,33.682 34.0305,33.682 C34.2211676,33.682 34.3944992,33.7079997 34.5505,33.76 L34.4985,35.021 C34.4031662,34.9949999 34.3078338,34.9733334 34.2125,34.956 C34.1171662,34.9386666 34.0218338,34.93 33.9265,34.93 C33.3544971,34.93 32.9168349,35.0903317 32.6135,35.411 C32.3101652,35.7316683 32.1585,36.2299966 32.1585,36.906 L32.1585,40 L30.9885,40 L30.9885,33.838 Z M39.1005,34.852 L37.4235,34.852 L37.4235,37.647 C37.4235,37.8203342 37.4278333,37.9914992 37.4365,38.1605 C37.4451667,38.3295008 37.4776664,38.481166 37.534,38.6155 C37.5903336,38.749834 37.6769994,38.8581663 37.794,38.9405 C37.9110006,39.0228337 38.0821655,39.064 38.3075,39.064 C38.4461674,39.064 38.5891659,39.0510001 38.7365,39.025 C38.8838341,38.9989999 39.0181661,38.9513337 39.1395,38.882 L39.1395,39.948 C39.0008326,40.0260004 38.8210011,40.0801665 38.6,40.1105 C38.3789989,40.1408335 38.2078339,40.156 38.0865,40.156 C37.6358311,40.156 37.2870012,40.0931673 37.04,39.9675 C36.7929988,39.8418327 36.6110006,39.6793343 36.494,39.48 C36.3769994,39.2806657 36.3076668,39.0575012 36.286,38.8105 C36.2643332,38.5634988 36.2535,38.3143346 36.2535,38.063 L36.2535,34.852 L34.9015,34.852 L34.9015,33.838 L36.2535,33.838 L36.2535,32.109 L37.4235,32.109 L37.4235,33.838 L39.1005,33.838 L39.1005,34.852 Z M46.6405,31.03 C46.3631653,31.4720022 46.120501,31.8966646 45.9125,32.304 C45.704499,32.7113354 45.5311674,33.1251646 45.3925,33.5455 C45.2538326,33.9658354 45.1498337,34.4013311 45.0805,34.852 C45.0111663,35.3026689 44.9765,35.7879974 44.9765,36.308 C44.9765,37.2613381 45.1151653,38.1843289 45.3925,39.077 C45.6698347,39.9696711 46.0858306,40.7973295 46.6405,41.56 L45.8605,42.08 C45.262497,41.2653293 44.7966683,40.3683382 44.463,39.389 C44.1293317,38.4096618 43.9625,37.382672 43.9625,36.308 C43.9625,35.3113283 44.1228317,34.3146717 44.4435,33.318 C44.7641683,32.3213284 45.2364969,31.3940043 45.8605,30.536 L46.6405,31.03 Z M47.5505,38.674 L51.2425,35.008 C51.3725007,34.8866661 51.4981661,34.7545007 51.6195,34.6115 C51.7408339,34.4684993 51.8491662,34.3190008 51.9445,34.163 C52.0398338,34.0069992 52.1156664,33.8423342 52.172,33.669 C52.2283336,33.4956658 52.2565,33.3136676 52.2565,33.123 C52.2565,32.8976655 52.2153337,32.6940009 52.133,32.512 C52.0506663,32.3299991 51.9380007,32.1761673 51.795,32.0505 C51.6519993,31.9248327 51.483001,31.8273337 51.288,31.758 C51.092999,31.6886663 50.8871678,31.654 50.6705,31.654 C50.2198311,31.654 49.8471681,31.7796654 49.5525,32.031 C49.2578319,32.2823346 49.0715004,32.6289978 48.9935,33.071 L47.6415,32.954 C47.702167,32.5466646 47.8213324,32.1935015 47.999,31.8945 C48.1766676,31.5954985 48.3976653,31.3463343 48.662,31.147 C48.9263347,30.9476657 49.229665,30.8003338 49.572,30.705 C49.914335,30.6096662 50.2848313,30.562 50.6835,30.562 C51.0821687,30.562 51.4569982,30.6161661 51.808,30.7245 C52.1590018,30.8328339 52.4666653,30.9931656 52.731,31.2055 C52.9953347,31.4178344 53.2033326,31.6821651 53.355,31.9985 C53.5066674,32.3148349 53.5825,32.6853312 53.5825,33.11 C53.5825,33.4133348 53.5370005,33.6971653 53.446,33.9615 C53.3549995,34.2258347 53.2358341,34.4749988 53.0885,34.709 C52.9411659,34.9430012 52.7721676,35.163999 52.5815,35.372 C52.3908324,35.580001 52.191501,35.7836657 51.9835,35.983 L48.9545,38.908 L53.5825,38.908 L53.5825,40 L47.5505,40 L47.5505,38.674 Z M54.4925,41.586 C54.7698347,41.1439978 55.012499,40.7193354 55.2205,40.312 C55.428501,39.9046646 55.6018326,39.4908354 55.7405,39.0705 C55.8791674,38.6501646 55.9831663,38.2146689 56.0525,37.764 C56.1218337,37.3133311 56.1565,36.8280026 56.1565,36.308 C56.1565,35.3546619 56.0178347,34.4316711 55.7405,33.539 C55.4631653,32.6463289 55.0471694,31.8186705 54.4925,31.056 L55.2725,30.536 C55.870503,31.3506707 56.3363317,32.2476618 56.67,33.227 C57.0036683,34.2063382 57.1705,35.233328 57.1705,36.308 C57.1705,37.3046717 57.0101683,38.3013283 56.6895,39.298 C56.3688317,40.2946716 55.8965031,41.2219957 55.2725,42.08 L54.4925,41.586 Z" id="Cart-(2)"></path>
        </g>
    </g>
</svg>