<?xml version="1.0" encoding="UTF-8" standalone="no"?>
<svg width="51px" height="51px" viewBox="0 0 51 51" version="1.1" xmlns="http://www.w3.org/2000/svg" xmlns:xlink="http://www.w3.org/1999/xlink">
    <!-- Generator: Sketch 41 (35326) - http://www.bohemiancoding.com/sketch -->
    <title>fit</title>
    <desc>Created with Sketch.</desc>
    <defs>
        <path d="M2.58333333,0 C1.4415,0 0.516666667,0.93975 0.516666667,2.1 L0.516666667,18.9 C0.516666667,20.06025 1.4415,21 2.58333333,21 L28.4166667,21 C28.8444667,21 29.2423,20.8677 29.5719333,20.6409 C29.7920333,20.49075 29.9821667,20.29755 30.1299333,20.0739 C30.3531333,19.73895 30.4833333,19.3347 30.4833333,18.9 L30.4833333,2.1 C30.4833333,1.6653 30.3531333,1.26105 30.1299333,0.9261 C29.9821667,0.70245 29.7920333,0.50925 29.5719333,0.3591 C29.2423,0.1323 28.8444667,0 28.4166667,0 L2.58333333,0 Z" id="path-1"></path>
        <path d="M6.659,0.734 L0.5,6 L11.5,6 L8.142,0.941 C7.948,0.648 7.63,0.494 7.308,0.494 C7.079,0.494 6.848,0.572 6.659,0.734 Z" id="path-3"></path>
        <path d="M9.215,0.71 L0.5,8 L15.492,8 L10.684,0.915 C10.489,0.628 10.174,0.477 9.856,0.476 C9.63,0.476 9.403,0.552 9.215,0.71 Z" id="path-5"></path>
        <path d="M3.957,5.355 C3.957,6.459 4.853,7.355 5.957,7.355 C7.062,7.355 7.957,6.459 7.957,5.355 C7.957,4.25 7.062,3.355 5.957,3.355 C4.853,3.355 3.957,4.25 3.957,5.355 Z" id="path-7"></path>
    </defs>
    <g id="Page-1" stroke="none" stroke-width="1" fill="none" fill-rule="evenodd">
        <g id="fit">
            <g id="Group-15" transform="translate(13.000000, 18.000000)"></g>
            <g id="Group" transform="translate(10.000000, 15.000000)">
                <g id="Group-6">
                    <mask id="mask-2" fill="white">
                        <use xlink:href="#path-1"></use>
                    </mask>
                    <g id="Clip-5"></g>
                    <polygon id="Fill-4" fill="#7FCBF7" mask="url(#mask-2)" points="-4.65 26.25 35.65 26.25 35.65 -5.25 -4.65 -5.25"></polygon>
                </g>
                <g id="Group-9" transform="translate(3.000000, 12.000000)">
                    <mask id="mask-4" fill="white">
                        <use xlink:href="#path-3"></use>
                    </mask>
                    <g id="Clip-8"></g>
                    <polygon id="Fill-7" fill="#9ED7FB" mask="url(#mask-4)" points="-4.5 11 16.5 11 16.5 -4.506 -4.5 -4.506"></polygon>
                </g>
                <g id="Group-12" transform="translate(12.000000, 10.000000)">
                    <mask id="mask-6" fill="white">
                        <use xlink:href="#path-5"></use>
                    </mask>
                    <g id="Clip-11"></g>
                    <polygon id="Fill-10" fill="#D3EDFF" mask="url(#mask-6)" points="-4.5 13 20.492 13 20.492 -4.523 -4.5 -4.523"></polygon>
                </g>
                <mask id="mask-8" fill="white">
                    <use xlink:href="#path-7"></use>
                </mask>
                <g id="Clip-14"></g>
                <polygon id="Fill-13" fill="#D3EDFF" mask="url(#mask-8)" points="-1.043 12.355 12.957 12.355 12.957 -1.645 -1.043 -1.645"></polygon>
            </g>
        </g>
    </g>
</svg>