<svg id="icons" xmlns="http://www.w3.org/2000/svg" viewBox="0 0 180 96"><defs><style>.cls-1{fill:#020017;}</style></defs><title>ions</title><path class="cls-1" d="M148.66127,34.25642c0.54785,0,1.097-.25265,1.097-1.43471h0.29519v9.70666h-0.29519c0-5.19108-3.12251-9.32681-7.93373-9.32681-3.79843,0-5.90823,2.53194-5.90823,5.44412,0,4.97966,6.035,5.6547,10.76156,7.89166,3.03829,1.43471,5.73932,3.55436,5.73932,7.86328,0,5.57044-4.51559,8.77765-9.79044,8.77765-4.2625,0-6.45691-1.89878-8.35613-1.89878a1.37407,1.37407,0,0,0-1.52024,1.51936h-0.33686v-10.508h0.33686a10.26984,10.26984,0,0,0,9.96019,10.59221c3.798,0,6.11917-2.74314,6.11917-6.414,0-5.06471-4.43093-6.20769-8.2298-7.64927-5.35823-2.07152-7.59559-4.35015-7.59559-8.14862,0-4.97961,3.798-7.84951,8.44078-7.84951,3.37564,0,5.82353,1.43471,7.21618,1.43471m-53.8072-1.01231H84.47091v0.37941h0.37963c1.89922,0,2.57466.6329,2.57466,2.57444V59.8873c0,1.94088-.67545,2.57426-2.57466,2.57426H84.47091v0.3373H94.85407c8.77721,0,14.517-5.95074,14.517-14.78426,0-8.8202-5.7398-14.77049-14.517-14.77049M94.6852,62.46157H94.30535c-1.89878,0-2.57382-.63338-2.57382-2.57426V36.198c0-1.94154.675-2.57444,2.57382-2.57444H94.6852c7.807,0,10.00142,6.58368,10.00142,14.43341,0,7.14591-1.81416,14.40463-10.00142,14.40463m36.20892-10.129h-0.33731c-0.2952,7.30167-3.12255,10.17113-9.83382,10.17113h-1.47642c-1.89922,0-2.57426-.63338-2.57426-2.5747V47.38123h2.27907c3.58706,0,5.86524,1.52368,5.86524,6.30181h0.33814V41.21951h-0.33814c0,4.76912-2.27819,5.824-5.86524,5.824H116.6723V36.2403c0-1.9411.675-2.57422,2.57426-2.57422H120.723c5.57176,0,9.03157,2.32074,9.03157,8.90481h0.33774V33.28622H109.45613v0.37985h0.37941c1.89882,0,2.5747.63312,2.5747,2.57422V59.929c0,1.94132-.67588,2.5747-2.5747,2.5747h-0.37941v0.33774h21.438V52.33255ZM70.22652,59.929V55.96255c0-7.01554-3.8401-8.83436-10.2549-8.8763l-0.08444.08444h1.60358c3.92476,0,9.15772-1.39326,9.15772-6.49946,0-5.23314-5.4439-7.42711-9.83294-7.42711H49.67417v0.37941h0.21116c1.89926,0,2.57448.6329,2.57448,2.57444V59.8873c0,1.94088-.67522,2.57426-2.57448,2.57426H49.50574v0.3373H59.92929v-0.3373H59.29613c-1.89878,0-2.57426-.63338-2.57426-2.57426V47.33894h2.78546c4.6,0,6.33037.97174,6.33037,7.31478v1.73034c0.04211,4.81122,1.43475,6.4148,4.81078,6.4148h1.85711v-0.3373H72.04108c-1.51892,0-1.81456-1.01279-1.81456-2.5326M59.676,47.002H56.72187V36.198c0-1.94154.67549-2.57444,2.57426-2.57444h0.75992c4.34694,0,6.37226,2.1527,6.37226,6.7104,0,4.5998-2.06787,6.66811-6.75233,6.66811m-19.93878.12615c4.1353-.04193,8.60878-1.8146,8.60878-6.62579,0-4.5998-4.09319-7.25828-9.49546-7.25828H27.58284v0.37941H27.9629c1.89879,0,2.57426.6329,2.57426,2.57444V59.8873c0,1.94088-.67547,2.57426-2.57426,2.57426H27.58284v0.3373H39.39946c5.14853,0,10.46588-1.85667,10.46588-7.51225,0-5.53348-5.10638-7.86306-10.12814-8.15844M34.84155,47.002V36.198c0-1.94154.67549-2.57444,2.57448-2.57444H38.049c4.17784,0,6.07684,2.06809,6.07684,6.66829,0,4.5998-1.899,6.71022-5.99262,6.71022H34.84155Zm3.84032,15.45953H37.416c-1.899,0-2.57448-.63338-2.57448-2.57426V47.33894h3.29164c4.93755,0,7.17446,2.41419,7.17446,7.695,0,5.106-2.06809,7.4276-6.62578,7.4276m34.81632,0.3373H83.711v-0.3373H83.33135c-1.89878,0-2.57426-.63338-2.57426-2.57426V36.198c0-1.94154.67549-2.57444,2.57426-2.57444H83.711V33.24412H73.49819v0.37941H73.878c1.899,0,2.57422.6329,2.57422,2.57444V59.8873c0,1.94088-.67522,2.57426-2.57422,2.57426H73.49819v0.3373Z"/></svg>