<svg id="icons" xmlns="http://www.w3.org/2000/svg" viewBox="0 0 133 96"><defs><style>.cls-1{fill:#eaf7ff;}.cls-2{fill:#555;}.cls-3{fill:#fff;}</style></defs><title>ions</title><path class="cls-1" d="M79.08758,50.12185L72.45722,35.64613s0.1673-1.9325.21363-2.02794a16.12551,16.12551,0,0,1,1.429-2.36019,0.4441,0.4441,0,0,0,.09331-0.27923,51.52719,51.52719,0,0,1,.43939-5.84534,0.44333,0.44333,0,0,0-.33682-0.48958l-2.41-.57274c-0.13224-.03121-4.63172,3.7504-5.38533,3.7504-1.21084,0-5.25376-3.7816-5.38515-3.7504l-2.41042.57274a0.4433,0.4433,0,0,0-.337.48958,51.53782,51.53782,0,0,1,.43939,5.84534,0.44432,0.44432,0,0,0,.09327.27923,16.1798,16.1798,0,0,1,1.42905,2.36019c0.04632,0.095.21362,2.0275,0.21362,2.0275L53.91284,50.12185a0.443,0.443,0,0,0,.06383.46989C54.09358,50.73116,56.95292,54,66.50021,54c9.54707,0,12.40664-3.26886,12.52353-3.40828A0.443,0.443,0,0,0,79.08758,50.12185Z"/><path class="cls-2" d="M66.50014,54.5c-9.78418,0-12.7832-3.44043-12.90625-3.58691a0.94218,0.94218,0,0,1-.13379-1.002l6.57324-14.35352c-0.07031-.80469-0.15625-1.66895-0.18457-1.80664v0.001a17.65672,17.65672,0,0,0-1.34277-2.1875,0.9438,0.9438,0,0,1-.19824-0.5957,50.30954,50.30954,0,0,0-.43262-5.75A0.94468,0.94468,0,0,1,58.59,24.15723l2.41016-.57227c0.27832-.07031.31934-0.03418,1.27344,0.76855,0.87207,0.73438,3.52637,2.96777,4.22656,2.96777a29.88606,29.88606,0,0,0,3.85156-2.7334c1.374-1.06934,1.373-1.07227,1.64844-1.00293l2.41113,0.57227a0.94256,0.94256,0,0,1,.71777,1.041,51.11417,51.11417,0,0,0-.43555,5.77246,0.949,0.949,0,0,1-.20117.59668,15.517,15.517,0,0,0-1.37207,2.26953c0.001,0.05566-.083.917-0.15332,1.72168l6.5752,14.35547a0.94572,0.94572,0,0,1-.13672,1C79.28334,51.05957,76.28432,54.5,66.50014,54.5ZM54.3683,50.33008c0.042,0,2.84961,3.16992,12.13184,3.16992,8.87988,0,11.834-2.90039,12.11719-3.2041L71.9474,35.73438l0.01172-.13086a9.37568,9.37568,0,0,1,.2627-2.20508,16.47964,16.47964,0,0,1,1.4834-2.44727,50.39,50.39,0,0,1,.43262-5.88574l-2.16113-.46387c-0.207.15039-.61426,0.4668-1.01074,0.77539-2.93555,2.28418-3.9375,2.94434-4.46582,2.94434-0.89062,0-2.46-1.17383-4.87012-3.20215-0.2627-.2207-0.47461-0.40137-0.6123-0.51074l-2.19727.52148a39.58542,39.58542,0,0,1,.4873,5.85645,15.65339,15.65339,0,0,1,1.46875,2.4082,9.144,9.144,0,0,1,.26465,2.208l0.01172,0.13086L54.3683,50.33008h0Z"/><rect class="cls-2" x="54.02962" y="44.49644" width="9.90686" height="1.00027" transform="translate(-6.09063 80.62113) rotate(-66.03751)"/><path class="cls-2" d="M73.49525,51.41113L73.298,50.43066a6.9496,6.9496,0,0,0,2.22754-1.13574L74.80385,47.6875l0.91211-.41016L76.6017,49.249a0.50054,0.50054,0,0,1-.14355.5957A8.75548,8.75548,0,0,1,73.49525,51.41113Z"/><polygon class="cls-3" points="72.181 36.5 60.828 36.5 61.064 36.01 60.844 34.5 72.073 34.5 71.928 36.047 72.181 36.5"/><polygon class="cls-2" points="73.469 37.5 59.469 37.5 60.063 36.5 72.969 36.5 73.469 37.5"/><rect class="cls-2" x="60" y="33.5" width="12" height="1"/></svg>