<svg id="icons" xmlns="http://www.w3.org/2000/svg" viewBox="0 0 133 96"><defs><style>.cls-1{fill:#fff;}.cls-2{fill:#eaf7ff;}.cls-3{fill:#555;}</style></defs><title>ions</title><path class="cls-1" d="M47.5,41.5v3H46.74869c-0.03827,1-.188.26535-0.188,0.41164"/><path class="cls-1" d="M54.9954,44.89487c0-.14629.10029,0.60513,0.062-0.39487H52.5"/><path class="cls-2" d="M57.12577,44.5H55.072c0.03827,1,.063.24858,0.063,0.39487,0,1.42341-1.88816,4.025-4.21734,4.025s-4.21734-2.59315-4.21734-4.01657c0-.14629.02471,0.59674,0.063-0.40326H44.70952A4.13429,4.13429,0,0,0,40.5,48.35812V54.5h20V48.35812C60.5,46.19925,59.28463,44.5,57.12577,44.5Z"/><path class="cls-3" d="M57.001,43.5H54.94727l-0.0072.00146L54.93262,43.5H53.625V42.89264A5.50232,5.50232,0,0,0,56.625,38V35a5.50015,5.50015,0,0,0-10.88916-1.09991l-0.01709.00519,0.01074,0.036A5.5028,5.5028,0,0,0,45.625,35v3a5.4913,5.4913,0,0,0,2,4.239V43.5h-3.04c-2.47852,0-3.96,2.4707-3.96,4.8584V54a0.49971,0.49971,0,0,0,.5.5h20a0.49971,0.49971,0,0,0,.5-0.5V48.3584A4.99934,4.99934,0,0,0,57.001,43.5Zm-5.876-13a4.49391,4.49391,0,0,1,4.21167,2.96149c-2.26636.87762-4.14185,0.57294-5.16187-.85992a0.49926,0.49926,0,0,0-.72461-0.09668,7.61486,7.61486,0,0,1-2.40137.98145l-0.15845.04932A4.49155,4.49155,0,0,1,51.125,30.5ZM47.65845,40.834A4.45579,4.45579,0,0,1,46.625,38V35c0-.11792.02588-0.22876,0.03479-0.34442,0.23987-.07556.47021-0.14716,0.684-0.2132a11.61753,11.61753,0,0,0,2.32422-.876,4.33026,4.33026,0,0,0,3.32617,1.38477,7.47041,7.47041,0,0,0,2.57422-.511A4.41054,4.41054,0,0,1,55.625,35v3a4.49773,4.49773,0,0,1-2,3.73822A4.74064,4.74064,0,0,1,47.65845,40.834ZM47.10693,44.5H48.125a0.49971,0.49971,0,0,0,.5-0.5V42.89264a5.42364,5.42364,0,0,0,4,.394V44a0.49971,0.49971,0,0,0,.5.5h1.333a1.73873,1.73873,0,0,0,.042.26868c-0.10742,1.2381-1.77588,3.52625-3.707,3.52625-1.93359,0-3.6084-2.3291-3.71289-3.58789A1.96244,1.96244,0,0,0,47.10693,44.5Zm13.51807,9h-19V48.3584c0-1.89648,1.10742-3.8584,2.96-3.8584h1.498a0.57025,0.57025,0,0,0-.00781.09082l0.00073,0.00934-0.00659.0014c0.0011,0.00793.00684,0.01489,0.00842,0.02277,0.02722,1.57953,2.05554,4.67059,4.71521,4.67059,2.72461,0,4.7168-3.05859,4.7168-4.65039A0.51692,0.51692,0,0,0,55.48926,44.5H57.001a4.00146,4.00146,0,0,1,3.624,3.8584V53.5Z"/><path class="cls-2" d="M88.675,46.43359A2.8401,2.8401,0,0,1,91.5,49.51767V54.5h-16V49.51767C75.5,47.7849,77.3021,46.5,79.03488,46.5h1.64841C80.65258,46.5,88.675,46.43359,88.675,46.43359Z"/><path class="cls-3" d="M88.93066,45.68359c-0.07935-.00165-1.05408-0.02289-2.30566-0.05023V44.07617a5.00324,5.00324,0,0,0,3-4.57617v-1a5,5,0,0,0-10,0v1a4.97851,4.97851,0,0,0,2,3.97443V45.5H78.91016c-2.05664,0-3.28516,2.043-3.28516,4.01758V54a0.49971,0.49971,0,0,0,.5.5h16a0.49971,0.49971,0,0,0,.5-0.5V49.51758A3.86857,3.86857,0,0,0,88.93066,45.68359ZM81.625,42.118a3.96565,3.96565,0,0,1-1-2.618v-1a4,4,0,0,1,8,0v1a3.98651,3.98651,0,0,1-2,3.44379C83.375,44.52083,81.625,42.118,81.625,42.118Zm3,2.382a5.00013,5.00013,0,0,0,1-.10107V45.5h-3V44.07617A4.96012,4.96012,0,0,0,84.625,44.5Zm7,9h-15V49.51758c0-1.4834.85449-3.01758,2.28516-3.01758H88.9248a3.05739,3.05739,0,0,1,2.7002,3.01758V53.5Z"/><path class="cls-1" d="M72.30526,43.5H69.5v-4h-5v4H62.84861a0.29617,0.29617,0,0,0-.07168.27707c0,1.62007,2.149,2.82809,4.8,2.82809s4.8-1.15539,4.8-2.77545A0.44859,0.44859,0,0,0,72.30526,43.5Z"/><path class="cls-2" d="M74.0193,36.37083a7.80276,7.80276,0,1,0-12.79022,0c0.3249,0.68292.36861,1.17466-.68173,1.95827-0.14153.10564,1.02292,1.2106,3.91346,0.70615a7.80068,7.80068,0,0,0,6.32676,0c2.89049,0.50445,4.055-.60051,3.91341-0.70615C73.65065,37.54548,73.68482,36.96233,74.0193,36.37083Z"/><path class="cls-3" d="M67.624,40.20508a8.24021,8.24021,0,0,1-3.22656-.65234c-2.72559.43457-4.09961-.47461-4.3125-0.96777a0.58482,0.58482,0,0,1,.16211-0.65625c0.86328-.64355.752-0.877,0.53125-1.34277a8.12961,8.12961,0,0,1-1.457-4.68359A8.30273,8.30273,0,1,1,74.44336,36.6377c-0.17285.30664-.33008,0.62988,0.55664,1.29a0.58555,0.58555,0,0,1,.16406.65625c-0.21289.49316-1.58887,1.40332-4.31348,0.96875A8.24021,8.24021,0,0,1,67.624,40.20508Zm-3.16309-1.66992a0.50572,0.50572,0,0,1,.20313.043,7.33208,7.33208,0,0,0,5.91992,0A0.49019,0.49019,0,0,1,70.873,38.543a5.27178,5.27178,0,0,0,3.0752-.19824A1.66246,1.66246,0,0,1,73.585,36.124c0.00781-.01367.01563-0.02637,0.02441-0.03906a7.30308,7.30308,0,1,0-11.9707-.001,1.70175,1.70175,0,0,1-.33691,2.26172A5.2891,5.2891,0,0,0,64.375,38.543,0.51133,0.51133,0,0,1,64.46094,38.53516Z"/><path class="cls-1" d="M73.17557,30.86126c-3.31634,1.34608-5.65052.01065-6.80984-1.61915a13.62183,13.62183,0,0,1-4.41548,2.17294c-0.03491.01139-.067,0.02057-0.10095,0.03122a6.06162,6.06162,0,0,0-.29378,1.8665c0,3.35162,3.26256,7.77519,6.06867,7.77519,3.00986,0,6.06867-4.42357,6.06867-7.77519A6.04522,6.04522,0,0,0,73.17557,30.86126Z"/><polygon class="cls-2" points="61.849 31.446 61.849 31.446 61.85 31.444 61.849 31.446"/><path class="cls-3" d="M61.84961,31.94629a0.50238,0.50238,0,1,1,.44727-0.27637A0.49971,0.49971,0,0,1,61.84961,31.94629Z"/><polygon class="cls-2" points="73.176 30.861 73.176 30.861 73.176 30.861 73.176 30.861"/><path class="cls-2" d="M74.65936,43.5h-2.3375a0.29617,0.29617,0,0,1,.07168.27707c0,1.62007-2.149,2.82809-4.8,2.82809s-4.8-1.15539-4.8-2.77545A0.44859,0.44859,0,0,1,62.86522,43.5h-2.3375C58.07059,43.5,55.5,45.0893,55.5,47.54643V54.5h23V47.54643C78.5,45.0893,77.11649,43.5,74.65936,43.5Z"/><path class="cls-3" d="M74.53418,42.5H72.19727l-0.00732.00146L72.18066,42.5H70.625V40.2655a10.00424,10.00424,0,0,0,3.44238-6.953,6.531,6.531,0,0,0-.55957-2.65332,0.49817,0.49817,0,0,0-.64551-0.26074c-3.73145,1.51172-5.70117-.72363-6.21484-1.44629a0.49975,0.49975,0,0,0-.34082-0.20605,0.49383,0.49383,0,0,0-.38379.10938,13.34958,13.34958,0,0,1-4.25293,2.084L61.8252,31.415l-0.25488-.44434a0.49964,0.49964,0,0,0-.32129.32129,6.55723,6.55723,0,0,0-.31836,2.02051A10.13573,10.13573,0,0,0,64.625,40.43427V42.5H60.40234A4.86534,4.86534,0,0,0,55.625,47.54688V54a0.49971,0.49971,0,0,0,.5.5h23a0.49971,0.49971,0,0,0,.5-0.5V47.54688A5.13694,5.13694,0,0,0,74.53418,42.5ZM61.93066,33.3125a5.5619,5.5619,0,0,1,.19727-1.4707,15.381,15.381,0,0,0,4.02441-1.9043A5.74164,5.74164,0,0,0,72.76563,31.502a4.87477,4.87477,0,0,1,.30176,1.81055c-0.21322,4.58333-3.94238,7.25-5.46322,7.25A3.82057,3.82057,0,0,1,64.625,39.08929,8.93549,8.93549,0,0,1,61.93066,33.3125ZM63.625,43.5h1.5a0.49971,0.49971,0,0,0,.5-0.5V41.08728a4.08985,4.08985,0,0,0,1.874.50061,4.32883,4.32883,0,0,0,2.126-.62384V43a0.49971,0.49971,0,0,0,.5.5h1.5v0.01758a2.1108,2.1108,0,0,1-1.11,1.71985,6.1732,6.1732,0,0,1-2.96753.73834c-2.28894-.02545-3.92249-1.13367-3.92249-2.44843V43.5Zm15,10h-22V47.54688A3.87712,3.87712,0,0,1,60.40234,43.5h1.75024l-0.00024.02734c0,1.93652,2.32813,3.45313,5.2998,3.45313,0.02979,0,.05737-0.00543.08691-0.00574,0.02966,0.00031.05615,0.00574,0.08594,0.00574A5.685,5.685,0,0,0,71.83325,45.462a2.70418,2.70418,0,0,0,.9187-1.9444L72.75183,43.5h1.78235A4.1749,4.1749,0,0,1,78.625,47.54688V53.5Z"/></svg>