<svg id="icons" xmlns="http://www.w3.org/2000/svg" viewBox="0 0 133 96"><defs><style>.cls-1{fill:#eaf7ff;}.cls-2{fill:#555;}</style></defs><title>ions</title><path class="cls-1" d="M65.75,32.77634L66.10938,50.024C68.04688,45.13487,81,46.99909,81,46.99909V27.86294S65.75,26.95425,65.75,32.77634Z"/><path class="cls-1" d="M65.84612,32.51347L66.08854,50.174C65.10474,45.23141,51,46.89155,51,46.89155V27.5464S65.84612,26.6278,65.84612,32.51347Z"/><path class="cls-2" d="M68.93652,52.96534c0.01563-.03223,2.28027-3.25391,15.498-1.50684a0.48429,0.48429,0,0,0,.39453-0.12012A0.50052,0.50052,0,0,0,85,50.96241V30.15577a0.50087,0.50087,0,0,0-.15625-0.36328,0.465,0.465,0,0,0-.37109-0.13574L82.5,29.73628v-1.727a0.4998,0.4998,0,0,0-.4707-0.499c-0.47266-.02832-11.19824-0.63672-14.89551,2.84863a4.11033,4.11033,0,0,0-.71436.90948,4.15926,4.15926,0,0,0-.78174-1.014c-3.58691-3.37109-14.2334-2.77148-14.66895-2.74414a0.50017,0.50017,0,0,0-.46875.499v1.68439l-1.9873-.0379a0.54811,0.54811,0,0,0-.36133.1416A0.50178,0.50178,0,0,0,48,30.15577V50.96241a0.5,0.5,0,0,0,.17285.37793,0.51248,0.51248,0,0,0,.39941.11719c12.37012-1.80371,15.37793,1.5459,15.43164,1.61914A3.24844,3.24844,0,0,0,68.93652,52.96534ZM66.90625,33.08058a2.64532,2.64532,0,0,1,.91309-1.99414c2.44238-2.30371,8.47461-2.62793,11.91309-2.62793,0.76172,0,1.377.01563,1.76758,0.0293v18.7207c-2.40137-.22266-11.13574-1.28516-14.5,1.94727ZM51.5,28.48683c2.04395-.0752,10.58594-0.19727,13.4541,2.49707a2.7664,2.7664,0,0,1,.95215,2.09668L65.9375,49.062c-1.96973-1.89844-6.752-2.0498-10.18848-2.0498-1.85059,0-3.43848.12109-4.249,0.19629V28.48683ZM84,50.39405c-12.78223-1.5957-15.47647,1.43966-15.94043,2.08789a1.94344,1.94344,0,0,1-1.64648.67383,2.37735,2.37735,0,0,1-1.60352-.66895C64.58235,52.269,61.67188,48.66066,49,50.38722V30.66847l1.5,0.0257V47.76222a0.499,0.499,0,0,0,.167.373,0.5099,0.5099,0,0,0,.39063.124c3.76563-.43945,14.11426-0.80371,14.8623,2.96582a0.19665,0.19665,0,0,0,.01208.031,0.48195,0.48195,0,0,0,.93567.05853L66.87256,51.315,66.875,51.312c1.52441-3.84668,11.2793-3.49414,15.06738-3.05273a0.52158,0.52158,0,0,0,.39063-0.124,0.499,0.499,0,0,0,.167-0.373v-17.025l1.5-.05408V50.39405Z"/></svg>