<svg id="icons" xmlns="http://www.w3.org/2000/svg" viewBox="0 0 133 96"><defs><style>.cls-1{fill:#eaf7ff;}.cls-2{fill:#fff;}.cls-3{fill:#555;}</style></defs><title>ions</title><path class="cls-1" d="M81.86824,31.5H64.20766l-0.95878-2H56.69365l-0.95878,2H51.1872C50.92244,31.5,50,31.21038,50,31.47514V52.70131A4.28676,4.28676,0,0,0,51.1872,54.5h30.681C82.133,54.5,82,52.96607,82,52.70131V31.47514C82,31.21038,82.133,31.5,81.86824,31.5Z"/><circle class="cls-2" cx="66.52772" cy="42.19099" r="7.44284"/><path class="cls-3" d="M81.86816,30.174H64.52246L63.7002,28.45813A0.5,0.5,0,0,0,63.249,28.174H56.69336a0.5,0.5,0,0,0-.45117.28418L55.4209,30.174H51.1875A1.4938,1.4938,0,0,0,50,31.47473V52.70129A1.6826,1.6826,0,0,0,51.1875,54.174H81.86816C82.55566,54.174,83,53.0802,83,52.70129V31.47473A1.422,1.422,0,0,0,81.86816,30.174ZM82,38.174H73.36841a7.92287,7.92287,0,0,0-13.6814,0H51v1h8.18359a7.94294,7.94294,0,1,0,14.68835,0H82v13.5127a1.194,1.194,0,0,1-.24316.4873H51.28711A1.51017,1.51017,0,0,1,51,52.70129L50.99707,31.51086c0.02344-.0957.19336-0.30957,0.19043-0.33691h4.54785a0.5,0.5,0,0,0,.45117-0.28418L57.00781,29.174h5.92676l0.82227,1.71582a0.5,0.5,0,0,0,.45117.28418H81.79492A0.71964,0.71964,0,0,1,82,31.47473V38.174ZM66.52734,35.24817A6.94287,6.94287,0,1,1,59.585,42.19055,6.951,6.951,0,0,1,66.52734,35.24817Z"/><circle class="cls-1" cx="66.52772" cy="42.19099" r="4.56174"/><path class="cls-3" d="M66.52734,47.25305a5.062,5.062,0,1,1,5.0625-5.0625A5.068,5.068,0,0,1,66.52734,47.25305Zm0-9.124a4.062,4.062,0,1,0,4.0625,4.06152A4.06648,4.06648,0,0,0,66.52734,38.129Z"/><circle class="cls-2" cx="78.49958" cy="34.99431" r="1.20046"/><path class="cls-3" d="M78.5,36.40279a1.55436,1.55436,0,1,1,1.55436-1.55436A1.5563,1.5563,0,0,1,78.5,36.40279Zm0-2.1945a0.64014,0.64014,0,1,0,.64014.64014A0.64146,0.64146,0,0,0,78.5,34.20829Z"/></svg>