<svg id="icons" xmlns="http://www.w3.org/2000/svg" viewBox="0 0 133 96"><defs><style>.cls-1{fill:#eaf7ff;}.cls-2{fill:#fff;}.cls-3{fill:#555;}</style></defs><title>ions</title><path class="cls-1" d="M63.70764,37.82617c-7.498,0-13.42773-5.66406-13.67676-5.90527a0.12272,0.12272,0,0,1-.043-0.0918,0.12729,0.12729,0,0,1,.04883-0.0918c0.25-.21973,6.21484-5.38672,13.65234-5.89844,0.68066-.04687,1.35156-0.07129,1.99219-0.07129,4.48926,0,7.97168,1.14941,10.35156,3.415a0.50115,0.50115,0,0,0,.34473.1377A0.48745,0.48745,0,0,0,76.54749,29.29l6.1543-2.22852c0.03027-.00293.05762-0.00391,0.082-0.00391a0.22878,0.22878,0,0,1,.19434.06641,0.1104,0.1104,0,0,1-.001.15137,6.99111,6.99111,0,0,0-.0332,8.5293l0.06836,0.124a0.19662,0.19662,0,0,1-.21387.15234,0.34924,0.34924,0,0,1-.10254-0.01855L77.09045,33.833a0.50012,0.50012,0,0,0-.56152.13672C74.48792,36.3125,69.45569,37.82617,63.70764,37.82617Z"/><path class="cls-2" d="M60.22717,37.417A23.67217,23.67217,0,0,1,50.03088,31.9209a0.12272,0.12272,0,0,1-.043-0.0918,0.12729,0.12729,0,0,1,.04883-0.0918A26.8667,26.8667,0,0,1,61.47913,26.1377C62.42542,28.89648,63.819,34.65137,60.22717,37.417Z"/><path class="cls-3" d="M83.35217,35.51593a6.49345,6.49345,0,0,1,.00842-7.92,0.60865,0.60865,0,0,0,.00293-0.79028,0.73751,0.73751,0,0,0-.56946-0.25934,0.77086,0.77086,0,0,0-.26245.04584l-6.1543,2.22827c-2.47766-2.35919-6.07263-3.55255-10.69836-3.55255q-0.98126,0-2.02454.07172c-0.62781.04321-1.24036,0.12866-1.845,0.23108h0l-0.00049.00006a27.07424,27.07424,0,0,0-11.47314,5.27643l-0.00757.006c-0.11768.09229-.222,0.17517-0.307,0.24457l-0.04663.03851c-0.062.051-.12268,0.10089-0.163,0.135-0.054.04565-.09009,0.07684-0.105,0.09a0.61448,0.61448,0,0,0-.02393.91949c0.024,0.02319.11572,0.1087,0.2395,0.2207l0.04236,0.03833c0.06824,0.06128.1499,0.13208,0.24231,0.212L50.24548,32.785c1.68555,1.45117,7.00513,5.54163,13.46265,5.54163,5.90723,0,11.08179-1.59949,13.198-4.02838l5.60376,2.22852a0.85479,0.85479,0,0,0,.29187.0542,0.68476,0.68476,0,0,0,.71069-0.65265A0.61779,0.61779,0,0,0,83.35217,35.51593Zm-32.09424-4.118c0.11-.08331.23047-0.17261,0.359-0.26636l0.0238-.0174a26.163,26.163,0,0,1,9.5022-4.39752c0.78015,2.45752,1.9386,7.62421-1.04041,10.15808a22.893,22.893,0,0,1-8.55859-4.31268l-0.00562-.00446c-0.11682-.09271-0.22449-0.18018-0.32458-0.26282L51.16809,32.257c-0.19373-.16077-0.35693-0.30151-0.48157-0.41217,0.13892-.11273.32251-0.25781,0.54333-0.42542ZM82,35.2478L77.27563,33.369a0.99968,0.99968,0,0,0-1.12354.27228c-1.92041,2.20428-6.92126,3.6853-12.444,3.6853a15.0844,15.0844,0,0,1-2.44043-.2052c2.71228-2.94183,1.7179-7.87878.864-10.59314,0.52271-.08368,1.05127-0.15393,1.59131-0.1911,0.66895-.046,1.327-0.06934,1.95593-0.06934,4.35779,0,7.72522,1.10248,10.00879,3.27673a0.99987,0.99987,0,0,0,1.03.21606l5.283-1.91278A7.34872,7.34872,0,0,0,82,35.2478Z"/><ellipse class="cls-3" cx="59.00994" cy="30.69042" rx="1.11619" ry="1.02164"/><path class="cls-1" d="M69.29163,53.67383c-5.74609,0-10.7793-1.51367-12.82129-3.85645a0.50012,0.50012,0,0,0-.56152-0.13672L50.3053,51.90918a0.378,0.378,0,0,1-.127.01953,0.18883,0.18883,0,0,1-.19043-0.15332c0.0127-.01465.05762-0.10742,0.06836-0.123A6.99133,6.99133,0,0,0,50.024,43.124a0.11046,0.11046,0,0,1-.00293-0.15137,0.24455,0.24455,0,0,1,.18555-0.0791l6.24609,2.24414a0.48745,0.48745,0,0,0,.16992.03027,0.50115,0.50115,0,0,0,.34473-0.1377c2.37988-2.2666,5.86328-3.415,10.35449-3.415,0.63965,0,1.30957.02344,1.98926,0.07031,7.4375,0.5127,13.40234,5.67969,13.65234,5.89941a0.12729,0.12729,0,0,1,.04883.0918,0.12272,0.12272,0,0,1-.043.0918C82.72034,48.00977,76.76819,53.67383,69.29163,53.67383Z"/><path class="cls-2" d="M72.77209,53.26367c-3.5918-2.76465-2.19824-8.51953-1.251-11.27832A26.8667,26.8667,0,0,1,82.9635,47.585a0.12729,0.12729,0,0,1,.04883.0918,0.12272,0.12272,0,0,1-.043.0918A23.81053,23.81053,0,0,1,72.77209,53.26367Z"/><path class="cls-3" d="M83.03284,48.38934l0.05725-.05176c0.05286-.048.10144-0.09155,0.13538-0.12329l0.051-.04791,0.04065-.03833a0.61424,0.61424,0,0,0-.02393-0.91949c-0.01477-.01288-0.049-0.04266-0.10144-0.087-0.0481-.04083-0.11743-0.09814-0.198-0.164l-0.01318-.01086c-0.08545-.06982-0.19031-0.15314-0.30908-0.24628l-0.00745-.00592c-0.12122-.09515-0.26038-0.201-0.41443-0.31653l-0.00146-.001a26.84177,26.84177,0,0,0-11.05688-4.9588L71.19055,41.418h0c-0.60461-.10242-1.21716-0.18787-1.845-0.23108q-1.04315-.07178-2.02454-0.07172c-4.62524,0-8.22083,1.19348-10.69836,3.55255l-6.1543-2.22827a0.77086,0.77086,0,0,0-.26245-0.04584,0.73751,0.73751,0,0,0-.56946.25934,0.60865,0.60865,0,0,0,.00293.79028,6.49345,6.49345,0,0,1,.00842,7.92,0.61779,0.61779,0,0,0-.16028.41235,0.68472,0.68472,0,0,0,.71069.65265,0.85479,0.85479,0,0,0,.29187-0.0542l5.60376-2.22852c2.11621,2.42889,7.29077,4.02838,13.198,4.02838,6.45459,0,11.77258-4.08685,13.46045-5.53973L82.797,48.5957C82.8866,48.51825,82.96606,48.44922,83.03284,48.38934Zm-1.23975-.25269a23.072,23.072,0,0,1-8.89563,4.58551c-2.979-2.53387-1.82056-7.70062-1.04041-10.15814a25.57457,25.57457,0,0,1,8.56189,3.743l0.01575,0.01044c0.1554,0.10352.3009,0.20337,0.44141,0.3009,0.03308,0.02307.06689,0.04639,0.09912,0.06909q0.18292,0.12817.34729,0.2475c0.04333,0.03143.08508,0.062,0.12634,0.09247,0.09412,0.06909.186,0.137,0.26953,0.20007,0.04968,0.03754.09448,0.0719,0.14014,0.10712,0.06689,0.05133.13611,0.10406,0.1947,0.15,0.07019,0.05518.131,0.10382,0.18884,0.15051l0.07141,0.05695c-0.12805.11371-.29553,0.25818-0.49646,0.4245Zm-24.94519,1.352a0.99968,0.99968,0,0,0-1.12354-.27228L51,51.09515a7.34865,7.34865,0,0,0-.00122-7.40015l5.28345,1.913a0.99987,0.99987,0,0,0,1.03-.21606c2.28357-2.17426,5.651-3.27673,10.00879-3.27673,0.62891,0,1.287.02332,1.95581,0.06934,0.54016,0.03717,1.06873.10742,1.59143,0.19116-0.854,2.71429-1.84827,7.65137.86414,10.5932a15.09169,15.09169,0,0,1-2.44055.20508C63.76917,53.174,58.76831,51.69293,56.8479,49.48865Z"/><ellipse class="cls-3" cx="73.99005" cy="46.53778" rx="1.11619" ry="1.02164"/></svg>