<svg id="icons" xmlns="http://www.w3.org/2000/svg" viewBox="0 0 180 96"><defs><style>.cls-1{fill:#231f20;}</style></defs><title>ions</title><path class="cls-1" d="M144.96749,52.07717a2.98584,2.98584,0,0,0,2.96952,3.02016,3.021,3.021,0,1,0-.10027-6.04032c-1.86283,0-4.22861,1.05706-5.03347,4.53048V49.35893H134.7492v0.3023H135.001c1.81214,0,2.265.85594,2.265,2.21438V63c0,1.61064-.75514,2.31562-2.66813,2.31562h-0.20107v0.30187H146.377V65.31562h-0.90653c-1.91251,0-2.66722-.705-2.66722-2.31562V55.95327c0-3.18888,1.44235-5.61327,3.39235-6.30139A3.25731,3.25731,0,0,0,144.96749,52.07717Z"/><rect class="cls-1" x="29.04235" y="38.73773" width="121.91529" height="0.30235"/><path class="cls-1" d="M119.49749,65.31562h-0.5039c-1.86235,0-2.66765-.705-2.66765-2.31562V40.95283h-8.30529v0.30187h0.50294c1.81219,0,2.26546.80529,2.26546,2.16465V63c0,1.61064-.80578,2.31562-2.66808,2.31562h-0.50347v0.30187h11.88V65.31562Z"/><path class="cls-1" d="M111.69514,35.01283l1.10722,0.20131a1.01643,1.01643,0,0,1,1.057.75513,0.89761,0.89761,0,0,1-1.057.70479,3.04931,3.04931,0,0,1-2.56733-1.51032l-0.1008-.15091h-0.30187v1.9631h0.35251a0.82891,0.82891,0,0,1,.55358-0.60374,4.06657,4.06657,0,0,0,2.11406.60374c1.91294,0,2.71829-.95626,2.71829-1.91275,0-1.15757-.95626-1.61083-2.0639-1.81219l-1.40957-.25147a0.80025,0.80025,0,0,1-.85546-0.65438c0-.35222.40267-0.705,1.25861-0.705a2.76237,2.76237,0,0,1,2.21438,1.05749l0.10075,0.151H115.118V31.33829h-0.35251a0.86219,0.86219,0,0,1-.40262.45326,4.22193,4.22193,0,0,0-1.86235-.45326c-1.61112,0-2.76845.75514-2.76845,1.9127C109.732,34.409,110.73845,34.86187,111.69514,35.01283Z"/><path class="cls-1" d="M97.75171,36.57351H97.148a0.43165,0.43165,0,0,1-.5039-0.50366V32.3953l3.62438,4.48008h1.10717v-4.631a0.43136,0.43136,0,0,1,.50391-0.503h0.352V31.439h-2.11406v0.30235h0.352a0.43134,0.43134,0,0,1,.5039.503V34.56l-2.61749-3.121h-2.97v0.30235h0.60374l0.25219,0.25152v4.07693a0.4318,0.4318,0,0,1-.5039.50366h-0.352v0.30187h2.36578V36.57351Z"/><path class="cls-1" d="M102.1308,36.87538h2.31562V36.57351H103.9931c-0.30187,0-.5531-0.15091-0.352-0.70474l0.22128-.65462h1.99829l0.34781,0.9061q0.15048,0.45353-.30235.45326h-0.30187v0.30187h3.52358V36.57351H108.9769a0.592,0.592,0,0,1-.60422-0.45326l-1.86235-4.6812H104.3461a1.34548,1.34548,0,0,1,.20107.50347,1.82385,1.82385,0,0,1-.15091.55358l-1.20845,3.32227a0.82463,0.82463,0,0,1-.8053.75514H102.1308v0.30187Zm2.66813-4.42968,0.94594,2.46658H103.965Z"/><path class="cls-1" d="M116.57765,33.20088c0.25171-1.208.7547-1.45949,1.61064-1.45949v4.32845a0.43135,0.43135,0,0,1-.503.50366h-0.55406v0.30187h4.22861V36.57351h-0.55407a0.43147,0.43147,0,0,1-.50342-0.50366V31.74139c0.85546,0,1.35936.25152,1.61064,1.45949l0.05059,0.25147h0.30235V31.439h-6.0408v2.01331H116.527Z"/><path class="cls-1" d="M85.31885,34.15709A2.78525,2.78525,0,0,0,82.29821,31.439H78.473v0.30235h0.35246a0.43114,0.43114,0,0,1,.50323.503v3.82546a0.43143,0.43143,0,0,1-.50323.50366H78.473v0.30187h3.82522A2.78526,2.78526,0,0,0,85.31885,34.15709Zm-3.9265,1.86259V31.74139h1.00709a0.54254,0.54254,0,0,1,.60374.55339v3.72489a0.54273,0.54273,0,0,1-.60374.55383H81.99658A0.543,0.543,0,0,1,81.39235,36.01968Z"/><path class="cls-1" d="M73.28813,36.57351H72.68438a0.43155,0.43155,0,0,1-.50366-0.50366V32.3953l3.62434,4.48008h1.10722v-4.631a0.43135,0.43135,0,0,1,.50366-0.503h0.352V31.439H75.65414v0.30235h0.352a0.43128,0.43128,0,0,1,.50366.503V34.56l-2.61749-3.121H70.92259v0.30235h0.60374l0.252,0.25152v4.07693a0.4314,0.4314,0,0,1-.50342.50366H70.92259v0.30187h2.36554V36.57351Z"/><path class="cls-1" d="M92.06342,34.6608H91.711l-0.05016.25147a1.72806,1.72806,0,0,1-1.96267,1.66123H89.39578a0.4513,0.4513,0,0,1-.50294-0.50366v-1.812c0.7549,0,.95621.15115,1.05677,0.8053L90,35.4661h0.35227v-2.718H90l-0.0504.40243c-0.10056.65458-.30187,0.75514-1.05677,0.75514V31.74139h0.7549A1.63634,1.63634,0,0,1,91.56,33.251l0.05064,0.20136H91.9631V31.439H85.97318v0.30235h0.35227a0.43114,0.43114,0,0,1,.50323.503v3.82546a0.43143,0.43143,0,0,1-.50323.50366H85.97318v0.30187h6.09024V34.6608Z"/><path class="cls-1" d="M67.34861,36.97594a2.83347,2.83347,0,1,0-3.1212-2.81885A2.92335,2.92335,0,0,0,67.34861,36.97594Zm-0.80534-4.78171a0.5431,0.5431,0,0,1,.60422-0.55407h0.40243a0.54343,0.54343,0,0,1,.60422.55407v3.926a0.543,0.543,0,0,1-.60422.55382H67.14749a0.54267,0.54267,0,0,1-.60422-0.55382v-3.926Z"/><path class="cls-1" d="M60.65367,36.97594a3.3619,3.3619,0,0,0,1.96291-.60374,1.07417,1.07417,0,0,1,.4031.60374h0.30187V35.11359H63.01968l-0.0504.15139a2.28437,2.28437,0,0,1-2.16466,1.40909,0.68787,0.68787,0,0,1-.8557-0.70479V32.34514a0.68817,0.68817,0,0,1,.8557-0.705,2.22067,2.22067,0,0,1,2.1143,1.40976l0.05035,0.151h0.30187V31.33829H62.96928a1.07329,1.07329,0,0,1-.40286.60422,3.18846,3.18846,0,0,0-1.91275-.60422A2.82553,2.82553,0,1,0,60.65367,36.97594Z"/><polygon class="cls-1" points="90.906 30.08 87.533 30.734 87.533 30.885 90.906 30.885 90.906 30.08"/><path class="cls-1" d="M37.7508,41.25471V63c0,1.61064-1.20845,2.31562-3.0708,2.31562H33.17016v0.30187H58.942V65.31562H58.03618c-1.91275,0-2.66789-.705-2.66789-2.31562V55.95327c0-3.18888,1.44235-5.61327,3.39278-6.30139a3.25806,3.25806,0,0,0-1.22808,2.4253,2.986,2.986,0,0,0,2.96976,3.02016,3.021,3.021,0,1,0-.10056-6.04032c-1.86259,0-4.22861,1.05706-5.0339,4.53048V49.35893H47.31447v0.3023h0.252c1.81219,0,2.26474.85594,2.26474,2.21438V63c0,1.56048-1.00661,2.31562-2.869,2.31562H46.25741c-1.9631,0-2.66789-.705-2.66789-2.31562V41.25471c3.87634,0.45326,6.94666,3.62414,8.40658,7.19813H52.298v-7.5H29.04235v7.5h0.30187C30.80415,44.87885,33.87447,41.708,37.7508,41.25471Z"/><path class="cls-1" d="M135.10123,59.32546h-0.30187v0.05016a5.95818,5.95818,0,0,1-5.99016,5.94,3.94739,3.94739,0,0,1-4.22813-4.27872V56.96016h10.67112v-0.151a8.12591,8.12591,0,0,0-8.35546-7.75219,8.5064,8.5064,0,0,0-8.75861,8.65786c0,3.6745,2.46658,8.205,9.26155,8.205C131.67845,65.91984,135.10123,63.45327,135.10123,59.32546Zm-10.52016-7.75171a2.05139,2.05139,0,0,1,2.11454-2.265h0.40219a2.05151,2.05151,0,0,1,2.11406,2.265v5.08406h-4.6308V51.57375Z"/><path class="cls-1" d="M85.77163,65.26546C88.0369,59.22471,89.54717,54.997,90.9061,52.47984c1.00642-1.86235,2.16422-2.81861,3.27139-2.81861h0.1008v-0.3023H86.92968v0.3023h0.25147c1.51032,0,2.71829.503,2.71829,2.36534A12.57925,12.57925,0,0,1,88.943,55.852l-1.86235,5.1347L82.5,49.66123h2.66789v-0.3023H73.89235v0.3023h2.16422l7.04717,16.25861h2.41642Z"/><path class="cls-1" d="M78.02016,59.32546H77.71781v3.121c0,1.057-.45278,1.45968-1.208,1.45968a1.19883,1.19883,0,0,1-1.208-1.45968V54.795c0-3.01968-2.41642-5.738-7.50048-5.738a11.62593,11.62593,0,0,0-4.12733.70454l0.20131,0.25171a11.22936,11.22936,0,0,1,3.926-.65434,12.87175,12.87175,0,0,1,1.96315.15091v7.09733H65.43586c-4.58064,0-6.34243,2.46658-6.34243,4.63128,0,2.265,1.76179,4.68139,5.33534,4.68139,2.97024,0,4.88294-1.66123,5.43677-3.27187,0,1.35936,1.208,3.27187,4.02682,3.27187,2.56709,0,4.12781-1.15829,4.12781-3.27187V59.32546Zm-8.25562,2.31562a2.0514,2.0514,0,0,1-2.11406,2.265H67.248a2.05151,2.05151,0,0,1-2.11454-2.265V56.90952h4.631v4.73155Z"/><path class="cls-1" d="M100.77187,65.91984c4.27829,0,7.70155-2.46657,7.70155-6.59438h-0.30187v0.05016a5.95788,5.95788,0,0,1-5.99016,5.94,3.9477,3.9477,0,0,1-4.22856-4.27872V56.96016h10.67155v-0.151a8.12641,8.12641,0,0,0-8.35594-7.75219,8.5064,8.5064,0,0,0-8.75861,8.65786C91.50984,61.38936,93.97642,65.91984,100.77187,65.91984Zm-2.819-14.34609a2.0516,2.0516,0,0,1,2.1145-2.265h0.40219a2.05137,2.05137,0,0,1,2.11454,2.265v5.08406H97.95283V51.57375Z"/></svg>