<svg id="Layer_1" data-name="Layer 1" xmlns="http://www.w3.org/2000/svg" viewBox="0 0 16 16"><defs><style>.cls-1{fill:#6fb8fc;}</style></defs><title>v</title><path class="cls-1" d="M11.89734,1A3.10618,3.10618,0,0,1,15,4.10266v7.79468A3.10618,3.10618,0,0,1,11.89734,15H4.10266A3.10618,3.10618,0,0,1,1,11.89734V4.10266A3.10618,3.10618,0,0,1,4.10266,1h7.79468m0-1H4.10266A4.10266,4.10266,0,0,0,0,4.10266v7.79468A4.10266,4.10266,0,0,0,4.10266,16h7.79468A4.10266,4.10266,0,0,0,16,11.89734V4.10266A4.10266,4.10266,0,0,0,11.89734,0Z"/></svg>