<svg id="icons" xmlns="http://www.w3.org/2000/svg" viewBox="0 0 180 96"><defs><style>.cls-1{fill:#1d1d1b;}</style></defs><title>ions</title><polygon class="cls-1" points="26.205 33.951 25.374 33.951 25.374 33.654 32.537 33.654 32.537 33.951 30.559 33.951 34.516 54.165 38.474 33.951 36.139 33.951 36.139 33.654 40.057 33.654 40.057 33.951 38.869 33.951 33.329 62.108 31.746 62.108 26.205 33.951"/><path class="cls-1" d="M39.54126,52.78892H43.9147l-2.18683-11.1811Zm-3.35374,9.02321h1.18723L42.91532,33.6542h1.58279l5.54057,28.15793h0.91986v0.29614H43.70675V61.81213h1.9786L43.97382,53.0854H39.4819l-1.71152,8.72672H40.105v0.29614H36.18752V61.81213Z"/><polygon class="cls-1" points="51.271 61.812 52.275 61.812 52.275 33.951 50.609 33.951 50.609 33.654 56.332 33.654 63.065 51.562 63.065 33.951 61.115 33.951 61.115 33.654 64.934 33.654 64.934 33.951 63.445 33.951 63.445 62.188 62.654 62.188 52.656 35.374 52.656 61.812 54.616 61.812 54.616 62.108 51.271 62.108 51.271 61.812"/><polygon class="cls-1" points="65.652 62.108 65.652 61.812 66.8 61.812 66.8 33.951 65.652 33.951 65.652 33.654 72.38 33.654 72.38 33.951 71.192 33.951 71.192 61.812 72.38 61.812 72.38 62.108 65.652 62.108"/><path class="cls-1" d="M76.82165,62.10826V61.81213H78.1277V33.96064H78.04848c-1.93968,0-4.04718,2.32582-4.40309,10.81394H73.30895V33.6542h14.0693V44.77459h-0.336c-0.39587-8.48813-2.66144-10.81394-4.40321-10.81394H82.52024V61.81213H83.866v0.29614H76.82165Z"/><polygon class="cls-1" points="91.687 62.108 91.687 61.812 92.993 61.812 92.993 48.574 88.798 33.951 87.967 33.951 87.967 33.654 95.13 33.654 95.13 33.951 93.073 33.951 97.149 47.744 100.354 33.951 98.138 33.951 98.138 33.654 101.739 33.654 101.739 33.951 100.75 33.951 97.386 48.574 97.386 61.812 98.692 61.812 98.692 62.108 91.687 62.108"/><path class="cls-1" d="M106.23137,62.10826V61.81213h1.1475V33.95068h-1.1475V33.6542h12.48551v8.5084h-0.336c-0.35624-6.13441-2.60226-8.21191-5.68886-8.21191h-0.92051V47.09981h0.52441c2.39485,0,3.26555-1.2171,3.50309-4.93722h0.29613v10.448H115.799c-0.23754-4.07636-1.10824-5.21437-3.2257-5.21437h-0.8018V61.81213h1.71164v0.29614h-7.2518Z"/><path class="cls-1" d="M119.83848,52.78892h4.37368l-2.18683-11.1811Zm-3.3532,9.02321h1.18722L123.213,33.6542h1.58285l5.54051,28.15793h0.83087v0.29614h-7.16309V61.81213h1.97894l-1.71175-8.72672h-4.492l-1.71177,8.72672h2.3352v0.29614h-3.91746V61.81213Z"/><polygon class="cls-1" points="131.588 62.108 131.588 61.812 132.736 61.812 132.736 33.951 131.588 33.951 131.588 33.654 138.316 33.654 138.316 33.951 137.129 33.951 137.129 61.812 138.316 61.812 138.316 62.108 131.588 62.108"/><path class="cls-1" d="M144.65282,33.95068V46.704h0.59344c2.13738,0,3.68039-.06925,3.68039-5.29324V40.02591c0-5.06566-1.543-6.07523-3.44285-6.07523h-0.831Zm4.03675,24.51691V51.50231c0-3.72-1.06886-4.50163-3.21551-4.50163h-0.82124V61.81213h1.74128v0.29614h-7.28179V61.81213h1.1475V33.95068h-1.1475V33.6542h6.37148c4.6698,0,7.67742,2.13691,7.67742,7.00476,0,4.27384-2.63191,5.77793-6.293,6.17344v0.03973c3.81961,0.51445,6.17413,1.89961,6.17413,6.92567v6.86636c0,0.8707.31664,1.10813,0.79172,1.10813a2.3414,2.3414,0,0,0,.7916-0.15821v0.29648a4.33094,4.33094,0,0,1-2.01856.43524C150.1536,62.3458,148.68958,61.47521,148.68958,58.46759Z"/></svg>