<?xml version="1.0" encoding="UTF-8" standalone="no"?>
<svg width="27px" height="27px" viewBox="0 0 27 27" version="1.1" xmlns="http://www.w3.org/2000/svg" xmlns:xlink="http://www.w3.org/1999/xlink" xmlns:sketch="http://www.bohemiancoding.com/sketch/ns">
    <!-- Generator: Sketch 3.4.2 (15855) - http://www.bohemiancoding.com/sketch -->
    <title>hide</title>
    <desc>Created with Sketch.</desc>
    <defs>
        <path id="path-1" d="M0,0 L13,0 L13,12 L0,12 L0,0 Z"></path>
    </defs>
    <g id="Page-1" stroke="none" stroke-width="1" fill="none" fill-rule="evenodd" sketch:type="MSPage">
        <g id="hide" sketch:type="MSArtboardGroup">
            <circle id="Oval-1" fill="#EAF7FF" sketch:type="MSShapeGroup" cx="13.5" cy="13.5" r="12.5"></circle>
            <g id="Page-1" sketch:type="MSLayerGroup" transform="translate(7.000000, 8.000000)">
                <mask id="mask-2" sketch:name="Clip 2" fill="white">
                    <use xlink:href="#path-1"></use>
                </mask>
                <g id="Clip-2"></g>
                <path d="M9.712,8.6637 L8.423,7.4137 C8.704,7.0187 8.873,6.5357 8.873,6.0017 C8.873,4.6537 7.829,3.5987 6.496,3.5987 C5.937,3.5987 5.418,3.7857 4.992,4.0867 L3.76,2.8917 C4.488,2.4357 5.364,2.1177 6.397,2.1177 C9.622,2.1177 11.474,5.1887 11.907,5.9997 C11.655,6.4727 10.918,7.7107 9.712,8.6637 L9.712,8.6637 Z M5.701,4.7737 C5.936,4.6407 6.207,4.5597 6.496,4.5597 C7.287,4.5597 7.883,5.1797 7.883,6.0017 C7.883,6.2677 7.815,6.5077 7.704,6.7167 L5.701,4.7737 Z M7.246,7.2217 C7.032,7.3597 6.777,7.4407 6.496,7.4407 C5.651,7.4407 4.938,6.7827 4.938,6.0017 C4.938,5.7197 5.033,5.4547 5.191,5.2297 L7.246,7.2217 Z M6.397,9.8847 C3.164,9.8847 1.455,6.7837 1.075,5.9997 C1.3,5.5357 1.997,4.2597 3.197,3.2957 L4.492,4.5517 C4.157,4.9587 3.947,5.4597 3.947,6.0017 C3.947,7.3027 5.115,8.4007 6.496,8.4007 C7.05,8.4007 7.548,8.2117 7.948,7.9027 L9.145,9.0637 C8.38,9.5447 7.466,9.8847 6.397,9.8847 L6.397,9.8847 Z M12.912,6.1937 L13,5.9997 L12.912,5.8057 C12.825,5.6167 10.745,1.1577 6.397,1.1577 C5.045,1.1577 3.931,1.5887 3.035,2.1887 L0.778,-0.0003 L0.288,0.4747 L2.481,2.6017 C0.871,3.9267 0.121,5.7047 0.073,5.8227 L0,5.9997 L0.073,6.1777 C0.151,6.3677 2.037,10.8457 6.397,10.8457 C7.783,10.8457 8.936,10.3907 9.87,9.7667 L12.173,11.9997 L12.663,11.5257 L10.426,9.3557 C12.049,8.0397 12.859,6.3107 12.912,6.1937 L12.912,6.1937 Z" id="Fill-1" fill="#3899EC" sketch:type="MSShapeGroup" mask="url(#mask-2)"></path>
            </g>
        </g>
    </g>
</svg>