<svg xmlns="http://www.w3.org/2000/svg" xmlns:xlink="http://www.w3.org/1999/xlink" width="213" height="114" viewBox="0 0 213 114">
    <defs>
        <path id="a" d="M0 114h213.596V.402H0z"/>
        <rect id="c" width="18.8" height="18.638" x="2.6" y="2.586" rx=".4"/>
        <rect id="d" width="18.8" height="18.638" rx=".4"/>
        <rect id="f" width="23.048" height="12.025" rx=".4"/>
        <rect id="g" width="23.048" height="12.025" rx=".4"/>
    </defs>
    <g fill="none" fill-rule="evenodd">
        <g transform="translate(1)">
            <path fill="#D3EDFF" d="M158.265 110.29c0 2.05-22.187 3.71-49.557 3.71s-49.558-1.66-49.558-3.71 22.187-3.71 49.558-3.71c27.37 0 49.557 1.66 49.557 3.71z"/>
            <path fill="#5FCEF5" d="M112.104 95.082h-6.133c-.32 0-.59.191-.629.508-.267 2.136-1.403 10.024-4.183 13.145-.358.402-.05 1.187.488 1.187h14.781c.537 0 .846-.808.489-1.209-2.78-3.122-3.917-10.903-4.184-13.038-.04-.317-.31-.593-.629-.593"/>
            <path fill="#A7E3FA" d="M170.734 65.137l5.167-1.576 1.576-5.162 1.577 5.162 5.167 1.576-5.167 1.576-1.577 5.162-1.576-5.162zM196.757 73.67l2.478-.756.757-2.477.756 2.477 2.479.756-2.479.756-.756 2.476-.757-2.476zM2.864 59.066l2.409-.735.735-2.406.735 2.406 2.408.735-2.408.734-.735 2.407-.735-2.407zM30.364 36.724l4.16-1.27 1.269-4.155 1.27 4.156 4.159 1.269-4.16 1.269-1.27 4.155-1.269-4.155zM48.513 51.056l-.59 1.305-3.916-1.765.59-1.305zM188.037 86.324l-.485 1.7-5.102-1.455.485-1.7zM24.65 3.046L27.855.402l7.938 9.615-3.208 2.644zM185.546 14.803l3.933 1.348-4.046 11.79-3.933-1.348zM34.89 87.578l-1.042-2.489 7.474-3.122 1.042 2.489zM197.571 55.472l-.255-2.686 8.065-.768.255 2.686z"/>
            <path stroke="#4EB7F5" stroke-dasharray="1,3" stroke-linecap="round" stroke-linejoin="round" d="M2.818 30.317a7.06 7.06 0 0 0-.788 9.96 7.074 7.074 0 0 0 9.968.788 7.074 7.074 0 0 1 9.967.787 7.061 7.061 0 0 1-.787 9.96l-.055-.01a7.061 7.061 0 0 0-.789 9.96 7.075 7.075 0 0 0 9.969.788 7.074 7.074 0 0 1 9.967.787 7.062 7.062 0 0 1-.788 9.96M181.025 44.558a4.542 4.542 0 0 0 6.12 1.941 4.535 4.535 0 0 0 1.942-6.115 4.535 4.535 0 0 1 1.942-6.116 4.542 4.542 0 0 1 6.12 1.94l-.015.034a4.542 4.542 0 0 0 6.12 1.94 4.535 4.535 0 0 0 1.943-6.116 4.534 4.534 0 0 1 1.941-6.115 4.542 4.542 0 0 1 6.12 1.94"/>
            <path fill="#D3EDFF" d="M162.866 94.746c0 1.69-1.435 3.034-3.124 3.034H58.652c-1.689 0-3.124-1.344-3.124-3.034V19.243c0-1.69 1.435-3.084 3.123-3.084h101.091c1.69 0 3.124 1.395 3.124 3.084v75.503z"/>
            <path fill="#5FCEF5" d="M163.308 16.159H55.094c-1.4 0-2.941.798-2.941 2.2v2.521H166.24V18.36c0-1.402-1.532-2.2-2.933-2.2"/>
            <path fill="#A7E3FA" d="M121.686 97.78V52.534c0-6.98-5.912-12.766-12.89-12.766h-.258c-6.976 0-12.505 5.786-12.505 12.766V97.78h25.653z"/>
            <path stroke="#D3EDFF" d="M96.033 51.573h25.653M108.522 51.236V39.768"/>
            <mask id="b" fill="#fff">
                <use xlink:href="#a"/>
            </mask>
            <path fill="#FFF" d="M99.409 84.963h18.902v-29.68H99.409zM99.409 94.407h18.902v-8.77H99.409z" mask="url(#b)"/>
        </g>
        <path d="M142.634 40C135.563 40 130 45.761 130 52.711V85h26V52.711C156 45.761 149.966 40 142.896 40h-.262z"/>
        <path stroke="#4EB7F5" d="M61.929 85.3h29.704-29.704zM128 73h29.703"/>
        <path fill="#4EB7F5" d="M64 45.36l3.337-1.02L68.356 41l1.018 3.34 3.337 1.02-3.337 1.02-1.018 3.341-1.019-3.34zM59 51.794l2.138-.654.652-2.14.653 2.14 2.138.654-2.138.653-.653 2.14-.652-2.14z"/>
        <path fill="#5FCEF5" d="M139.624 27.714a5.421 5.421 0 0 0 5.42 5.416 5.421 5.421 0 0 0 5.419-5.416v-6.067h-10.839v6.067zM151.14 27.714a5.421 5.421 0 0 0 5.42 5.416 5.421 5.421 0 0 0 5.419-5.416v-6.067H151.14v6.067zM162.656 27.714c0 2.991 2.44 5.416 5.426 5.416a5.426 5.426 0 0 0 5.417-5.424l-5.718-6.06h-5.125v6.068zM105.753 27.714c0 2.991 2.094 5.416 5.08 5.416 2.988 0 5.081-2.425 5.081-5.416v-6.067h-10.16v6.067zM116.592 27.714a5.421 5.421 0 0 0 5.42 5.416 5.421 5.421 0 0 0 5.419-5.416v-6.067h-10.84v6.067zM128.108 27.714a5.421 5.421 0 0 0 5.42 5.416 5.421 5.421 0 0 0 5.419-5.416v-6.067h-10.839v6.067zM71.205 27.714a5.421 5.421 0 0 0 5.42 5.416 5.421 5.421 0 0 0 5.419-5.416v-6.067h-10.84v6.067zM82.72 27.714a5.421 5.421 0 0 0 5.42 5.416 5.421 5.421 0 0 0 5.42-5.416v-6.067H82.72v6.067zM94.237 27.714a5.421 5.421 0 0 0 5.42 5.416 5.421 5.421 0 0 0 5.419-5.416v-6.067H94.237v6.067zM59.689 27.714a5.421 5.421 0 0 0 5.419 5.416 5.421 5.421 0 0 0 5.42-5.416v-6.067h-10.84v6.067zM48.16 27.706c0 2.991 2.44 5.42 5.426 5.42 2.987 0 5.425-2.421 5.425-5.411v-6.069h-5.124l-5.727 6.06z"/>
        <path stroke="#D3EDFF" stroke-dasharray="1,3" stroke-linecap="round" d="M48.85 27.405h123.968"/>
        <path stroke="#D3EDFF" d="M53.592 21.308h114.484"/>
        <g transform="translate(65 53)">
            <circle cx="12" cy="2" r="2" fill="#FFF" stroke="#4EB7F5" stroke-width=".5"/>
            <g transform="translate(0 2.19)">
                <rect width="24" height="24" fill="#FFF" rx="1.2"/>
                <use fill="#4EB7F5" xlink:href="#c"/>
                <rect width="18.3" height="18.138" x="2.85" y="2.836" stroke="#4EB7F5" stroke-width=".5" rx=".4"/>
            </g>
            <g transform="translate(2.6 4.776)">
                <mask id="e" fill="#fff">
                    <use xlink:href="#d"/>
                </mask>
                <use fill="#D8D8D8" fill-opacity="0" xlink:href="#d"/>
                <g fill="#D3EDFF" mask="url(#e)">
                    <path d="M4.8 7.931l9.6 11.103H-4.8z"/>
                    <path d="M12.2 11.5l7.4 8.328H4.8z"/>
                </g>
            </g>
            <ellipse cx="16.8" cy="9.733" fill="#FFF" rx="2.2" ry="2.181"/>
        </g>
        <g>
            <g transform="translate(130 47)">
                <path fill="#FFF" d="M1.2 0h26.6A1.2 1.2 0 0 1 29 1.2v17.6a1.2 1.2 0 0 1-1.2 1.2H1.2A1.2 1.2 0 0 1 0 18.8V1.2A1.2 1.2 0 0 1 1.2 0z"/>
                <circle cx="3.2" cy="2.6" r="1" fill="#4EB7F5"/>
                <circle cx="5.6" cy="2.6" r="1" fill="#4EB7F5"/>
                <circle cx="8" cy="2.6" r="1" fill="#4EB7F5"/>
            </g>
            <g transform="translate(132.8 52.337)">
                <use fill="#C0E0D0" xlink:href="#f"/>
                <mask id="h" fill="#fff">
                    <use xlink:href="#g"/>
                </mask>
                <use fill="#4EB7F5" xlink:href="#g"/>
                <path fill="#D3EDFF" d="M13.528 6.514l8.017 5.511H5.512z" mask="url(#h)"/>
                <path fill="#D3EDFF" d="M5.261 4.51l9.27 7.515H-4.01z" mask="url(#h)"/>
                <circle cx="20.293" cy="2.756" r="1.253" fill="#FFF" mask="url(#h)"/>
            </g>
            <text fill="#3899EC" font-family="HelveticaNeueW01-65Medium, Helvetica Neue W01 65 Medium" font-size="5" letter-spacing=".188" transform="translate(129 47)">
                <tspan x=".072" y="34">DOWNLOAD</tspan>
            </text>
        </g>
        <path fill="#4EB7F5" d="M155 46.794l2.138-.654.652-2.14.653 2.14 2.138.654-2.138.653-.653 2.14-.652-2.14z"/>
    </g>
</svg>
