<?xml version="1.0" encoding="UTF-8" standalone="no"?>
<svg width="72px" height="72px" viewBox="0 0 72 72" version="1.1" xmlns="http://www.w3.org/2000/svg" xmlns:xlink="http://www.w3.org/1999/xlink">
    <!-- Generator: Sketch 42 (36781) - http://www.bohemiancoding.com/sketch -->
    <title>6</title>
    <desc>Created with Sketch.</desc>
    <defs>
        <polygon id="path-1" points="0 0 20 0 16.6297743 13.5 3.33333333 13.5"></polygon>
        <path d="M11.1111111,5.625 C11.1111111,2.51839828 8.62380411,0 5.55555556,0 C2.48730694,0 0,2.51839828 0,5.625" id="path-3"></path>
    </defs>
    <g id="cart" stroke="none" stroke-width="1" fill="none" fill-rule="evenodd">
        <g id="6">
            <g id="Group-2" transform="translate(20.000000, 27.000000)">
                <g id="Group">
                    <g id="Rectangle-4" transform="translate(0.000000, 4.500000)">
                        <g id="path-1-Clipped">
                            <mask id="mask-2" fill="white">
                                <use xlink:href="#path-1"></use>
                            </mask>
                            <g id="path-1"></g>
                            <polygon id="path-1" stroke="#EAF7FF" stroke-width="2.2" mask="url(#mask-2)" points="0 0 20 0 16.6297743 13.5 3.33333333 13.5"></polygon>
                        </g>
                    </g>
                    <g id="Oval-2" transform="translate(4.444444, 0.000000)">
                        <g id="path-3-Clipped">
                            <mask id="mask-4" fill="white">
                                <use xlink:href="#path-3"></use>
                            </mask>
                            <g id="path-3"></g>
                            <path d="M11.1111111,5.625 C11.1111111,2.51839828 8.62380411,0 5.55555556,0 C2.48730694,0 0,2.51839828 0,5.625" id="path-3" stroke="#EAF7FF" stroke-width="2.2" mask="url(#mask-4)"></path>
                        </g>
                    </g>
                </g>
                <path d="M25.984,13.674 L29.676,10.008 C29.8060007,9.88666606 29.9316661,9.75450072 30.053,9.6115 C30.1743339,9.46849929 30.2826662,9.31900078 30.378,9.163 C30.4733338,9.00699922 30.5491664,8.8423342 30.6055,8.669 C30.6618336,8.4956658 30.69,8.31366762 30.69,8.123 C30.69,7.89766554 30.6488337,7.69400091 30.5665,7.512 C30.4841663,7.32999909 30.3715007,7.1761673 30.2285,7.0505 C30.0854993,6.92483271 29.916501,6.82733368 29.7215,6.758 C29.526499,6.68866632 29.3206678,6.654 29.104,6.654 C28.6533311,6.654 28.2806681,6.77966541 27.986,7.031 C27.6913319,7.28233459 27.5050004,7.62899779 27.427,8.071 L26.075,7.954 C26.135667,7.54666463 26.2548324,7.1935015 26.4325,6.8945 C26.6101676,6.59549851 26.8311653,6.34633433 27.0955,6.147 C27.3598347,5.94766567 27.663165,5.80033381 28.0055,5.705 C28.347835,5.60966619 28.7183313,5.562 29.117,5.562 C29.5156687,5.562 29.8904982,5.61616613 30.2415,5.7245 C30.5925018,5.83283388 30.9001653,5.99316561 31.1645,6.2055 C31.4288347,6.4178344 31.6368326,6.68216509 31.7885,6.9985 C31.9401674,7.31483492 32.016,7.68533121 32.016,8.11 C32.016,8.41333485 31.9705005,8.69716535 31.8795,8.9615 C31.7884995,9.22583466 31.6693341,9.47499883 31.522,9.709 C31.3746659,9.94300117 31.2056676,10.163999 31.015,10.372 C30.8243324,10.580001 30.625001,10.7836657 30.417,10.983 L27.388,13.908 L32.016,13.908 L32.016,15 L25.984,15 L25.984,13.674 Z" id="2" fill="#EAF7FF"></path>
            </g>
        </g>
    </g>
</svg>