<?xml version="1.0" encoding="UTF-8" standalone="no"?>
<svg width="72px" height="72px" viewBox="0 0 72 72" version="1.1" xmlns="http://www.w3.org/2000/svg" xmlns:xlink="http://www.w3.org/1999/xlink">
    <!-- Generator: Sketch 42 (36781) - http://www.bohemiancoding.com/sketch -->
    <title>1</title>
    <desc>Created with Sketch.</desc>
    <defs></defs>
    <g id="cart" stroke="none" stroke-width="1" fill="none" fill-rule="evenodd">
        <g id="1">
            <g id="Group-2" transform="translate(19.000000, 27.000000)">
                <g id="Group">
                    <polyline id="Stroke-1" stroke="#3899EC" stroke-width="1.12" stroke-linecap="round" stroke-linejoin="round" points="0.0139702689 0.0450793846 3.9465332 0.013608871 6.71061198 12.7883694 17.766588 12.7948904"></polyline>
                    <path d="M19.9798584,1.79814296 L18.8065592,9.27104335 L5.95018174,9.29266161 L4.34726291,1.76107296 C8.0857969,1.75185862 19.9798584,1.79814296 19.9798584,1.79814296 Z" id="Stroke-3" stroke="#3899EC" stroke-width="1.12" stroke-linecap="round" stroke-linejoin="round" fill="#3899EC" fill-rule="nonzero"></path>
                    <path d="M7.77777778,14.516129 C6.84920634,14.516129 6.11111111,15.2875576 6.11111111,16.2580645 C6.11111111,17.2285714 6.84920634,18 7.77777778,18 C8.70634921,18 9.44444444,17.2285714 9.44444444,16.2580645 C9.44444444,15.2875576 8.70634921,14.516129 7.77777778,14.516129 L7.77777778,14.516129 Z M7.77777778,17.0046082 C7.37301588,17.0046082 7.06349207,16.681106 7.06349207,16.2580645 C7.06349207,15.8350231 7.37301588,15.5115208 7.77777778,15.5115208 C8.18253968,15.5115208 8.49206349,15.8350231 8.49206349,16.2580645 C8.49206349,16.681106 8.15873016,17.0046082 7.77777778,17.0046082 L7.77777778,17.0046082 Z M15.1587301,16.2580645 C15.1587301,17.2285714 15.8968254,18 16.8253968,18 C17.7539682,18 18.4920634,17.2285714 18.4920634,16.2580645 C18.4920634,15.2875576 17.7539682,14.516129 16.8253968,14.516129 C15.8968254,14.516129 15.1587301,15.2875576 15.1587301,16.2580645 Z M16.8253968,17.0046082 C16.4206349,17.0046082 16.1111111,16.681106 16.1111111,16.2580645 C16.1111111,15.8350231 16.4206349,15.5115208 16.8253968,15.5115208 C17.2301588,15.5115208 17.5396826,15.8350231 17.5396826,16.2580645 C17.5396826,16.681106 17.2063492,17.0046082 16.8253968,17.0046082 L16.8253968,17.0046082 Z" id="Shape" fill="#3899EC" fill-rule="nonzero"></path>
                </g>
                <path d="M26.984,13.674 L30.676,10.008 C30.8060007,9.88666606 30.9316661,9.75450072 31.053,9.6115 C31.1743339,9.46849929 31.2826662,9.31900078 31.378,9.163 C31.4733338,9.00699922 31.5491664,8.8423342 31.6055,8.669 C31.6618336,8.4956658 31.69,8.31366762 31.69,8.123 C31.69,7.89766554 31.6488337,7.69400091 31.5665,7.512 C31.4841663,7.32999909 31.3715007,7.1761673 31.2285,7.0505 C31.0854993,6.92483271 30.916501,6.82733368 30.7215,6.758 C30.526499,6.68866632 30.3206678,6.654 30.104,6.654 C29.6533311,6.654 29.2806681,6.77966541 28.986,7.031 C28.6913319,7.28233459 28.5050004,7.62899779 28.427,8.071 L27.075,7.954 C27.135667,7.54666463 27.2548324,7.1935015 27.4325,6.8945 C27.6101676,6.59549851 27.8311653,6.34633433 28.0955,6.147 C28.3598347,5.94766567 28.663165,5.80033381 29.0055,5.705 C29.347835,5.60966619 29.7183313,5.562 30.117,5.562 C30.5156687,5.562 30.8904982,5.61616613 31.2415,5.7245 C31.5925018,5.83283388 31.9001653,5.99316561 32.1645,6.2055 C32.4288347,6.4178344 32.6368326,6.68216509 32.7885,6.9985 C32.9401674,7.31483492 33.016,7.68533121 33.016,8.11 C33.016,8.41333485 32.9705005,8.69716535 32.8795,8.9615 C32.7884995,9.22583466 32.6693341,9.47499883 32.522,9.709 C32.3746659,9.94300117 32.2056676,10.163999 32.015,10.372 C31.8243324,10.580001 31.625001,10.7836657 31.417,10.983 L28.388,13.908 L33.016,13.908 L33.016,15 L26.984,15 L26.984,13.674 Z" id="2" fill="#3899EC"></path>
            </g>
        </g>
    </g>
</svg>