<?xml version="1.0" encoding="utf-8"?>
<svg xmlns="http://www.w3.org/2000/svg"
	xmlns:xlink="http://www.w3.org/1999/xlink"
	width="17px" height="13px" viewBox="0 0 17 13">
<path fillRule="evenodd" d="M 16.48 0.01C 16.48 0.01 16.11 0.01 16.11 0.01 16.11 0.01 16.11-0 16.11-0 16.11-0 16.1 0.01 16.1 0.01 16.1 0.01 0.96 0.01 0.96 0.01 0.96 0.01 0.95-0 0.95-0 0.95-0 0.94 0.01 0.94 0.01 0.94 0.01 0.52 0.01 0.52 0.01 0.23 0.01 0 0.25 0 0.55 0 0.55 0 12.46 0 12.46 0 12.76 0.23 13 0.52 13 0.52 13 16.48 13 16.48 13 16.77 13 17 12.76 17 12.46 17 12.46 17 0.55 17 0.55 17 0.25 16.77 0.01 16.48 0.01ZM 6.23 5.83C 6.23 5.83 1.05 11.15 1.05 11.15 1.05 11.15 1.05 1.47 1.05 1.47 1.05 1.47 6.23 5.83 6.23 5.83ZM 7.05 6.51C 7.05 6.51 8.2 7.48 8.2 7.48 8.3 7.56 8.41 7.6 8.53 7.6 8.65 7.6 8.76 7.56 8.86 7.48 8.86 7.48 10.01 6.51 10.01 6.51 10.01 6.51 15.28 11.92 15.28 11.92 15.28 11.92 1.78 11.92 1.78 11.92 1.78 11.92 7.05 6.51 7.05 6.51ZM 10.83 5.83C 10.83 5.83 15.95 1.52 15.95 1.52 15.95 1.52 15.95 11.09 15.95 11.09 15.95 11.09 10.83 5.83 10.83 5.83ZM 14.81 1.09C 14.81 1.09 8.53 6.36 8.53 6.36 8.53 6.36 2.25 1.09 2.25 1.09 2.25 1.09 14.81 1.09 14.81 1.09Z" fill="rgb(171,171,179)"/></svg>