<?xml version="1.0" encoding="UTF-8" standalone="no"?>
<svg width="38px" height="38px" viewBox="0 0 38 38" version="1.1" xmlns="http://www.w3.org/2000/svg" xmlns:xlink="http://www.w3.org/1999/xlink">
    <!-- Generator: Sketch 41 (35326) - http://www.bohemiancoding.com/sketch -->
    <title>ver alignment top selected</title>
    <desc>Created with Sketch.</desc>
    <defs></defs>
    <g id="Page-1" stroke="none" stroke-width="1" fill="none" fill-rule="evenodd">
        <g id="ver-alignment-top-selected">
            <g id="thmb-align-left-sel" transform="translate(19.000000, 19.500000) rotate(-270.000000) translate(-19.000000, -19.500000) translate(10.500000, 9.500000)">
                <g id="Page-1">
                    <g>
                        <g id="thmb-align-left-sel">
                            <g id="Page-1">
                                <g id="Group">
                                    <g id="thmb-align-left-sel">
                                        <path d="M12,9 L6,9 C4.895,9 4,8.105 4,7 L4,4 C4,2.895 4.895,2 6,2 L12,2 C13.105,2 14,2.895 14,4 L14,7 C14,8.105 13.105,9 12,9" id="Fill-282" fill="#7FCCF7"></path>
                                        <path d="M15,18 L6,18 C4.895,18 4,17.105 4,16 L4,13 C4,11.895 4.895,11 6,11 L15,11 C16.105,11 17,11.895 17,13 L17,16 C17,17.105 16.105,18 15,18 L15,18 Z M0,0 L2,0 L2,20 L0,20 L0,0 L0,0 Z" id="Fill-283" fill="#D3EDFF"></path>
                                    </g>
                                </g>
                            </g>
                        </g>
                    </g>
                </g>
            </g>
        </g>
    </g>
</svg>