<?xml version="1.0" encoding="UTF-8" standalone="no"?>
<svg width="38px" height="38px" viewBox="0 0 38 38" version="1.1" xmlns="http://www.w3.org/2000/svg" xmlns:xlink="http://www.w3.org/1999/xlink">
    <!-- Generator: Sketch 41 (35326) - http://www.bohemiancoding.com/sketch -->
    <title>hor alignment center</title>
    <desc>Created with Sketch.</desc>
    <defs></defs>
    <g id="Page-1" stroke="none" stroke-width="1" fill="none" fill-rule="evenodd">
        <g id="hor-alignment-center">
            <g id="thmb-align-center-reg" transform="translate(11.000000, 9.000000)">
                <g id="Page-1">
                    <g>
                        <g id="thmb-align-center-reg">
                            <g id="Page-1">
                                <g id="Group">
                                    <g id="thmb-align-center-reg">
                                        <path d="M11,9 L5,9 C3.895,9 3,8.105 3,7 L3,4 C3,2.895 3.895,2 5,2 L11,2 C12.105,2 13,2.895 13,4 L13,7 C13,8.105 12.105,9 11,9" id="Fill-291" fill="#3899EC"></path>
                                        <path d="M7,0 L9,0 L9,2 L7,2 L7,0 L7,0 Z M14,11 L9,11 L9,9 L7,9 L7,11 L2,11 C0.895,11 0,11.895 0,13 L0,16 C0,17.105 0.895,18 2,18 L7,18 L7,20 L9,20 L9,18 L14,18 C15.104,18 16,17.105 16,16 L16,13 C16,11.895 15.104,11 14,11 L14,11 Z" id="Fill-292" fill="#7FCCF7"></path>
                                    </g>
                                </g>
                            </g>
                        </g>
                    </g>
                </g>
            </g>
        </g>
    </g>
</svg>