<?xml version="1.0" encoding="UTF-8" standalone="no"?>
<svg width="19px" height="17px" viewBox="0 0 19 17" version="1.1" xmlns="http://www.w3.org/2000/svg" xmlns:xlink="http://www.w3.org/1999/xlink">
    <!-- Generator: Sketch 43.2 (39069) - http://www.bohemiancoding.com/sketch -->
    <title>new download icon</title>
    <desc>Created with Sketch.</desc>
    <defs></defs>
    <g id="Symbols" stroke="none" stroke-width="1" fill="none" fill-rule="evenodd">
        <g id="Artboard" transform="translate(-4.000000, -2.000000)" fill="#000000">
            <g id="new-download-icon" transform="translate(4.000000, 2.000000)">
                <path d="M10,11.863961 L10,0.49120903 C10,0.224482218 9.77614237,-9.42656451e-19 9.5,-2.10548211e-18 C9.23193359,-3.23430016e-18 9,0.219921774 9,0.49120903 L9,11.7928932 L4.91452174,7.70741496 C4.72385816,7.51675138 4.40236893,7.51184464 4.20710678,7.70710678 C4.01755521,7.89665835 4.01198261,8.21908939 4.20741496,8.41452174 L9.15654607,13.3636529 C9.25960179,13.4667086 9.40087848,13.5154951 9.53978461,13.5077365 C9.67463693,13.5133439 9.81204026,13.4661343 9.91452174,13.3636529 L14.8636529,8.41452174 C15.0543164,8.22385816 15.0592232,7.90236893 14.863961,7.70710678 C14.6744095,7.51755521 14.3519784,7.51198261 14.1565461,7.70741496 L10,11.863961 Z" id="Combined-Shape"></path>
                <path d="M18.9333333,16.5 C18.9333333,16.7761424 18.7075133,17 18.4269124,17 L0.50642093,17 C0.226732373,17 0,16.7680664 0,16.5 L0,16.5 C0,16.2238576 0.225820005,16 0.50642093,16 L18.4269124,16 C18.706601,16 18.9333333,16.2319336 18.9333333,16.5 L18.9333333,16.5 Z" id="Rectangle-7"></path>
            </g>
        </g>
    </g>
</svg>