<?xml version="1.0" encoding="utf-8"?>
<!-- Generator: Adobe Illustrator 19.2.0, SVG Export Plug-In . SVG Version: 6.00 Build 0)  -->
<svg version="1.1" id="Layer_1" xmlns="http://www.w3.org/2000/svg" xmlns:xlink="http://www.w3.org/1999/xlink" x="0px" y="0px"
	 width="15px" height="15px" viewBox="0 0 15 15" enable-background="new 0 0 15 15" xml:space="preserve">
<g>
	<polygon points="1,9 0,9 0,14 0,15 6,15 6,14 1,14 	"/>
	<polygon points="0,1 0,1 0,6 1,6 1,1 6,1 6,0 0,0 	"/>
	<polygon points="15,0 14,0 9,0 9,1 14,1 14,6 15,6 15,1 15,0 	"/>
	<polygon points="14,14 9,14 9,15 15,15 15,14 15,9 14,9 	"/>
</g>
</svg>
