<svg xmlns="http://www.w3.org/2000/svg" width="18" height="18" viewBox="0 0 18 18">
    <g fill="none" fill-rule="evenodd">
        <circle cx="9" cy="9" r="9" stroke="#2D2D2D" fill="#FFF"/>
        <path fill="#2D2D2D" d="M9.44 3.411a.943.943 0 0 1 .329.328.866.866 0 0 1 0 .892.906.906 0 0 1-.329.328.885.885 0 0 1-.892 0 .872.872 0 0 1-.328-.328.885.885 0 0 1 0-.892.906.906 0 0 1 .776-.45c.16 0 .308.04.444.122zm.387 9.899a.6.6 0 0 0 .335.307c.152.06.36.09.625.09V14a50.765 50.765 0 0 0-1.695-.055c-.274 0-.839.019-1.696.055v-.294c.265 0 .473-.03.626-.089a.6.6 0 0 0 .335-.307c.07-.146.106-.35.106-.609V8.32c0-.433-.079-.747-.236-.943-.157-.196-.434-.294-.83-.294v-.294c.291.027.58.041.868.041.592 0 1.077-.064 1.456-.191V12.7c0 .26.035.463.106.609z"/>
    </g>
</svg>
