<?xml version="1.0" encoding="utf-8"?>
<!-- Generator: Adobe Illustrator 19.2.0, SVG Export Plug-In . SVG Version: 6.00 Build 0)  -->
<svg version="1.1" id="Layer_1" xmlns="http://www.w3.org/2000/svg" xmlns:xlink="http://www.w3.org/1999/xlink" x="0px" y="0px"
	 width="46px" height="46px" viewBox="0 0 46 46" enable-background="new 0 0 46 46" xml:space="preserve">
<path d="M23,2c11.6,0,21,9.4,21,21s-9.4,21-21,21S2,34.6,2,23S11.4,2,23,2 M23,0C10.3,0,0,10.3,0,23c0,12.7,10.3,23,23,23
	c12.7,0,23-10.3,23-23C46,10.3,35.7,0,23,0L23,0z"/>
<path fill-rule="evenodd" clip-rule="evenodd" d="M23.4,21c1.6,0,2.9,1.3,2.9,3c0,1.7-1.3,3-2.9,3c-1.6,0-2.9-1.3-2.9-3
	C20.5,22.3,21.8,21,23.4,21z"/>
<path fill-rule="evenodd" clip-rule="evenodd" d="M33.4,21c1.6,0,2.9,1.3,2.9,3c0,1.7-1.3,3-2.9,3c-1.6,0-2.9-1.3-2.9-3
	C30.5,22.3,31.8,21,33.4,21z"/>
<path fill-rule="evenodd" clip-rule="evenodd" d="M13.1,21c1.6,0,2.9,1.3,2.9,3c0,1.7-1.3,3-2.9,3c-1.6,0-2.9-1.3-2.9-3
	C10.3,22.3,11.6,21,13.1,21z"/>
</svg>
