<?xml version="1.0" encoding="utf-8"?>
<!-- Generator: Adobe Illustrator 19.2.0, SVG Export Plug-In . SVG Version: 6.00 Build 0)  -->
<svg version="1.1" id="Layer_1" xmlns="http://www.w3.org/2000/svg" xmlns:xlink="http://www.w3.org/1999/xlink" x="0px" y="0px"
	 width="18px" height="15px" viewBox="0 0 18 15" enable-background="new 0 0 18 15" xml:space="preserve">
<path fill="#1A1A1A" d="M9,15c-0.1,0-0.2,0-0.3-0.1c-0.2-0.2-6-3.9-7.8-7C0,6.3-0.3,4.5,0.3,3C0.8,1.7,1.7,0.7,3,0.3
	C5.3-0.5,7.7,0.7,9,2.4c1.4-1.9,4-2.9,6.1-2.1c1.2,0.5,2.2,1.4,2.6,2.6c0.6,1.5,0.3,3.3-0.6,5c-1.8,3.3-7.5,6.8-7.8,7
	C9.2,15,9.1,15,9,15z"/>
</svg>
