<?xml version="1.0" encoding="UTF-8" standalone="no"?>
<svg width="34px" height="34px" viewBox="0 0 34 34" version="1.1" xmlns="http://www.w3.org/2000/svg" xmlns:xlink="http://www.w3.org/1999/xlink" xmlns:sketch="http://www.bohemiancoding.com/sketch/ns">
    <!-- Generator: Sketch 3.3.2 (12043) - http://www.bohemiancoding.com/sketch -->
    <title>bold-bld-reg-up</title>
    <desc>Created with Sketch.</desc>
    <defs></defs>
    <g id="Page-1" stroke="none" stroke-width="1" fill="none" fill-rule="evenodd" sketch:type="MSPage">
        <g id="bold-bld-reg-up" sketch:type="MSArtboardGroup" fill="#1D2D3C">
            <path d="M18.783,24 L13.997,24 C12.891,24 12,23.105 12,22 L12,12 C12,10.895 12.891,10 13.997,10 L17.911,10 C19.393,10 20.557,10.639 21.317,11.792 C22.134,13.034 22.202,14.618 21.484,15.937 C21.337,16.208 21.167,16.45 20.972,16.674 C22.051,17.25 22.853,18.367 22.974,19.573 C23.089,20.724 22.737,21.811 21.983,22.639 C21.195,23.504 20.028,24 18.783,24 L18.783,24 Z M14,18 L14,22 L19.01,22 C20.065,22 21.023,21.531 21.023,20 C21.023,18.469 20.118,18 19.01,18 L14,18 L14,18 Z M14,16 L18.004,16 C18.631,16 20.016,16 20.016,14 C20.016,12.063 18.792,12 18.004,12 L14,12 L14,16 L14,16 Z" id="Imported-Layers" sketch:type="MSShapeGroup"></path>
        </g>
    </g>
</svg>