<?xml version="1.0" encoding="UTF-8" standalone="no"?>
<svg width="34px" height="34px" viewBox="0 0 34 34" version="1.1" xmlns="http://www.w3.org/2000/svg" xmlns:xlink="http://www.w3.org/1999/xlink" xmlns:sketch="http://www.bohemiancoding.com/sketch/ns">
    <!-- Generator: Sketch 3.3.2 (12043) - http://www.bohemiancoding.com/sketch -->
    <title>bullets-list-rtl-bld-reg-up</title>
    <desc>Created with Sketch.</desc>
    <defs></defs>
    <g id="Page-1" stroke="none" stroke-width="1" fill="none" fill-rule="evenodd" sketch:type="MSPage">
        <g id="bullets-list-rtl-bld-reg-up" sketch:type="MSArtboardGroup" fill="#1D2D3C">
            <g id="Imported-Layers" sketch:type="MSLayerGroup" transform="translate(10.000000, 9.000000)">
                <path d="M0.06,13 L10,13 L10,15 L0.06,15 L0.06,13 Z" id="Fill-1" sketch:type="MSShapeGroup"></path>
                <path d="M0.06,7 L10,7 L10,9 L0.06,9 L0.06,7 Z" id="Fill-2" sketch:type="MSShapeGroup"></path>
                <path d="M0.06,1 L10,1 L10,3 L0.06,3 L0.06,1 Z" id="Fill-3" sketch:type="MSShapeGroup"></path>
                <path d="M12,0 L15,0 L15,3 L12,3 L12,0 Z" id="Fill-4" sketch:type="MSShapeGroup"></path>
                <path d="M12,6 L15,6 L15,9 L12,9 L12,6 Z" id="Fill-5" sketch:type="MSShapeGroup"></path>
                <path d="M12,12 L15,12 L15,15 L12,15 L12,12 Z" id="Fill-6" sketch:type="MSShapeGroup"></path>
            </g>
        </g>
    </g>
</svg>