<?xml version="1.0" encoding="UTF-8" standalone="no"?>
<svg width="34px" height="34px" viewBox="0 0 34 34" version="1.1" xmlns="http://www.w3.org/2000/svg" xmlns:xlink="http://www.w3.org/1999/xlink" xmlns:sketch="http://www.bohemiancoding.com/sketch/ns">
    <!-- Generator: Sketch 3.3.2 (12043) - http://www.bohemiancoding.com/sketch -->
    <title>highlight-bld-reg-up</title>
    <desc>Created with Sketch.</desc>
    <defs></defs>
    <g id="Page-1" stroke="none" stroke-width="1" fill="none" fill-rule="evenodd" sketch:type="MSPage">
        <g id="highlight-bld-reg-up" sketch:type="MSArtboardGroup" fill="#1D2D3C">
            <g id="Imported-Layers" sketch:type="MSLayerGroup" transform="translate(3.000000, 6.000000)">
                <path d="M23.796,6.376 L22.95,5.078 L22.116,6.384 C21.694,7.043 18,12.952 18,16 C18,17.917 19.346,21 22.958,21 C26.436,21 28,18.059 28,16 C28,12.947 24.226,7.036 23.796,6.376 L23.796,6.376 Z M22.958,20 C20.024,20 19,17.49 19,16 C19,13.156 22.958,6.958 22.958,6.958 C22.958,6.958 27,13.156 27,16 C27,17.49 25.892,20 22.958,20 L22.958,20 Z" id="Fill-1" sketch:type="MSShapeGroup"></path>
                <path d="M18.146,9.771 C19.594,6.918 21.317,4.297 22,3.396 L22,2 C22,0.895 21.105,0 20,0 L1,0 C0.448,0 0,0.447 0,1 C0,1.553 0.448,2 1,2 L4,2 L4,5 L2,5 C1.448,5 1,5.447 1,6 C1,6.553 1.448,7 2,7 L4,7 L4,9 L3,9 C2.448,9 2,9.447 2,10 C2,10.553 2.448,11 3,11 L4,11 L4,13 L3,13 C2.448,13 2,13.447 2,14 C2,14.553 2.448,15 3,15 L4,15 L4,17 C4,18.105 4.896,19 6,19 L16.983,19 C16.127,17.654 16.04,16.08 16.374,14.441 L15.393,12 L9.774,12 L8,16 L6,16 L11.043,4.177 C11.343,3.451 11.986,3 12.722,3 L12.723,3 C13.458,3 14.102,3.452 14.401,4.178 L17.289,11.601 C17.55,10.985 17.841,10.372 18.146,9.771" id="Fill-2" sketch:type="MSShapeGroup"></path>
                <path d="M10.661,10 L14.589,10 L12.722,5.352 L10.661,10" id="Fill-3" sketch:type="MSShapeGroup"></path>
            </g>
        </g>
    </g>
</svg>