<?xml version="1.0" encoding="UTF-8" standalone="no"?>
<svg width="34px" height="34px" viewBox="0 0 34 34" version="1.1" xmlns="http://www.w3.org/2000/svg" xmlns:xlink="http://www.w3.org/1999/xlink" xmlns:sketch="http://www.bohemiancoding.com/sketch/ns">
    <!-- Generator: Sketch 3.3.2 (12043) - http://www.bohemiancoding.com/sketch -->
    <title>indent-rtl-decrease-bld-reg-up</title>
    <desc>Created with Sketch.</desc>
    <defs></defs>
    <g id="Page-1" stroke="none" stroke-width="1" fill="none" fill-rule="evenodd" sketch:type="MSPage">
        <g id="indent-rtl-decrease-bld-reg-up" sketch:type="MSArtboardGroup" fill="#1D2D3C">
            <g id="Imported-Layers" sketch:type="MSLayerGroup" transform="translate(10.000000, 10.000000)">
                <path d="M0.06,0 L13,0 L13,2 L0.06,2 L0.06,0 Z" id="Fill-1" sketch:type="MSShapeGroup"></path>
                <path d="M0.06,12 L13,12 L13,14 L0.06,14 L0.06,12 Z" id="Fill-2" sketch:type="MSShapeGroup"></path>
                <path d="M0.06,3 L7,3 L7,5 L0.06,5 L0.06,3 Z" id="Fill-3" sketch:type="MSShapeGroup"></path>
                <path d="M0.06,9 L7,9 L7,11 L0.06,11 L0.06,9 Z" id="Fill-4" sketch:type="MSShapeGroup"></path>
                <path d="M0.06,6 L7,6 L7,8 L0.06,8 L0.06,6 Z" id="Fill-5" sketch:type="MSShapeGroup"></path>
                <path d="M10.132,9.88 C10.337,9.88 10.544,9.817 10.723,9.686 L14,7 L10.723,4.073 C10.276,3.748 9.652,3.843 9.324,4.288 C8.998,4.733 9.094,5.359 9.539,5.686 L11,7 L9.539,8.073 C9.094,8.4 8.998,9.026 9.324,9.472 C9.521,9.738 9.824,9.88 10.132,9.88" id="Fill-6" sketch:type="MSShapeGroup"></path>
            </g>
        </g>
    </g>
</svg>