<?xml version="1.0" encoding="UTF-8" standalone="no"?>
<svg width="34px" height="34px" viewBox="0 0 34 34" version="1.1" xmlns="http://www.w3.org/2000/svg" xmlns:xlink="http://www.w3.org/1999/xlink" xmlns:sketch="http://www.bohemiancoding.com/sketch/ns">
    <!-- Generator: Sketch 3.3.2 (12043) - http://www.bohemiancoding.com/sketch -->
    <title>indent-ltr-increase-bld-reg-up</title>
    <desc>Created with Sketch.</desc>
    <defs></defs>
    <g id="Page-1" stroke="none" stroke-width="1" fill="none" fill-rule="evenodd" sketch:type="MSPage">
        <g id="indent-ltr-increase-bld-reg-up" sketch:type="MSArtboardGroup" fill="#1D2D3C">
            <g id="Imported-Layers" sketch:type="MSLayerGroup" transform="translate(9.000000, 10.000000)">
                <path d="M2,0 L15,0 L15,2 L2,2 L2,0 Z" id="Fill-1" sketch:type="MSShapeGroup"></path>
                <path d="M2,12 L15,12 L15,14 L2,14 L2,12 Z" id="Fill-2" sketch:type="MSShapeGroup"></path>
                <path d="M8,3 L15,3 L15,5 L8,5 L8,3 Z" id="Fill-3" sketch:type="MSShapeGroup"></path>
                <path d="M8,9 L15,9 L15,11 L8,11 L8,9 Z" id="Fill-4" sketch:type="MSShapeGroup"></path>
                <path d="M8,6 L15,6 L15,8 L8,8 L8,6 Z" id="Fill-5" sketch:type="MSShapeGroup"></path>
                <path d="M2.001,9.88 C1.693,9.88 1.39,9.738 1.194,9.472 C0.867,9.026 0.963,8.4 1.408,8.073 L3,7 L1.408,5.686 C0.963,5.359 0.867,4.733 1.194,4.288 C1.521,3.844 2.146,3.746 2.592,4.073 L6,7 L2.592,9.686 C2.414,9.816 2.206,9.88 2.001,9.88" id="Fill-6" sketch:type="MSShapeGroup"></path>
            </g>
        </g>
    </g>
</svg>