<?xml version="1.0" encoding="UTF-8" standalone="no"?>
<svg width="34px" height="34px" viewBox="0 0 34 34" version="1.1" xmlns="http://www.w3.org/2000/svg" xmlns:xlink="http://www.w3.org/1999/xlink" xmlns:sketch="http://www.bohemiancoding.com/sketch/ns">
    <!-- Generator: Sketch 3.3.2 (12043) - http://www.bohemiancoding.com/sketch -->
    <title>indent-rtl-increase-bld-reg-up</title>
    <desc>Created with Sketch.</desc>
    <defs></defs>
    <g id="Page-1" stroke="none" stroke-width="1" fill="none" fill-rule="evenodd" sketch:type="MSPage">
        <g id="indent-rtl-increase-bld-reg-up" sketch:type="MSArtboardGroup" fill="#1D2D3C">
            <g id="Imported-Layers" sketch:type="MSLayerGroup" transform="translate(10.000000, 10.000000)">
                <path d="M0.06,0 L13,0 L13,2 L0.06,2 L0.06,0 Z" id="Fill-1" sketch:type="MSShapeGroup"></path>
                <path d="M0.06,12 L13,12 L13,14 L0.06,14 L0.06,12 Z" id="Fill-2" sketch:type="MSShapeGroup"></path>
                <path d="M0.06,3 L7,3 L7,5 L0.06,5 L0.06,3 Z" id="Fill-3" sketch:type="MSShapeGroup"></path>
                <path d="M0.06,9 L7,9 L7,11 L0.06,11 L0.06,9 Z" id="Fill-4" sketch:type="MSShapeGroup"></path>
                <path d="M0.06,6 L7,6 L7,8 L0.06,8 L0.06,6 Z" id="Fill-5" sketch:type="MSShapeGroup"></path>
                <path d="M12.999,9.88 C13.307,9.88 13.61,9.738 13.806,9.472 C14.133,9.026 14.037,8.4 13.592,8.073 L12,7 L13.592,5.686 C14.037,5.359 14.133,4.733 13.806,4.288 C13.479,3.844 12.854,3.746 12.408,4.073 L9,7 L12.408,9.686 C12.586,9.816 12.794,9.88 12.999,9.88" id="Fill-6" sketch:type="MSShapeGroup"></path>
            </g>
        </g>
    </g>
</svg>