<?xml version="1.0" encoding="UTF-8" standalone="no"?>
<svg width="34px" height="34px" viewBox="0 0 34 34" version="1.1" xmlns="http://www.w3.org/2000/svg" xmlns:xlink="http://www.w3.org/1999/xlink" xmlns:sketch="http://www.bohemiancoding.com/sketch/ns">
    <!-- Generator: Sketch 3.3.2 (12043) - http://www.bohemiancoding.com/sketch -->
    <title>line-height-bld-reg-up</title>
    <desc>Created with Sketch.</desc>
    <defs></defs>
    <g id="Page-1" stroke="none" stroke-width="1" fill="none" fill-rule="evenodd" sketch:type="MSPage">
        <g id="line-height-bld-reg-up" sketch:type="MSArtboardGroup" fill="#1D2D3C">
            <g id="Imported-Layers" sketch:type="MSLayerGroup" transform="translate(7.000000, 10.000000)">
                <g sketch:type="MSShapeGroup">
                    <path d="M6,4 L3,0 L0,4 L2,4 L2,10 L0,10 L3,14 L6,10 L4,10 L4,4 L6,4" id="Fill-1"></path>
                    <path d="M8,0 L18,0 L18,2 L8,2 L8,0 Z" id="Fill-2"></path>
                    <path d="M8,4 L18,4 L18,6 L8,6 L8,4 Z" id="Fill-3"></path>
                    <path d="M8,8 L18,8 L18,10 L8,10 L8,8 Z" id="Fill-4"></path>
                    <path d="M8,12 L18,12 L18,14 L8,14 L8,12 Z" id="Fill-5"></path>
                </g>
            </g>
        </g>
    </g>
</svg>