<?xml version="1.0" encoding="UTF-8" standalone="no"?>
<svg width="34px" height="34px" viewBox="0 0 34 34" version="1.1" xmlns="http://www.w3.org/2000/svg" xmlns:xlink="http://www.w3.org/1999/xlink" xmlns:sketch="http://www.bohemiancoding.com/sketch/ns">
    <!-- Generator: Sketch 3.3.2 (12043) - http://www.bohemiancoding.com/sketch -->
    <title>numeric-list-rtl-bld-reg-up</title>
    <desc>Created with Sketch.</desc>
    <defs></defs>
    <g id="Page-1" stroke="none" stroke-width="1" fill="none" fill-rule="evenodd" sketch:type="MSPage">
        <g id="numeric-list-rtl-bld-reg-up" sketch:type="MSArtboardGroup" fill="#1D2D3C">
            <g id="Imported-Layers" sketch:type="MSLayerGroup" transform="translate(10.000000, 9.000000)">
                <path d="M0.06,13 L10,13 L10,15 L0.06,15 L0.06,13 Z" id="Fill-1" sketch:type="MSShapeGroup"></path>
                <path d="M0.06,7 L10,7 L10,9 L0.06,9 L0.06,7 Z" id="Fill-2" sketch:type="MSShapeGroup"></path>
                <path d="M0.06,1 L10,1 L10,3 L0.06,3 L0.06,1 Z" id="Fill-3" sketch:type="MSShapeGroup"></path>
                <path d="M13,4 L14,4 L14,0 L12,0 L12,1 L13,1 L13,4" id="Fill-4" sketch:type="MSShapeGroup"></path>
                <path d="M15,6 L12,6 L12,7 L14.078,7 L12,9 C12,9 12.003,9 12,10 L15,10 L15,9 L13.078,9 L15,6.992 L15,6" id="Fill-5" sketch:type="MSShapeGroup"></path>
                <path d="M12,13 L14,13 L13,14 L14,15 L12,15 L12,16 L15,16 L15,14.992 L14,13.992 L15,12.992 L15,12 L12,12 L12,13" id="Fill-6" sketch:type="MSShapeGroup"></path>
            </g>
        </g>
    </g>
</svg>