<?xml version="1.0" encoding="UTF-8" standalone="no"?>
<svg width="34px" height="34px" viewBox="0 0 34 34" version="1.1" xmlns="http://www.w3.org/2000/svg" xmlns:xlink="http://www.w3.org/1999/xlink" xmlns:sketch="http://www.bohemiancoding.com/sketch/ns">
    <!-- Generator: Sketch 3.3.2 (12043) - http://www.bohemiancoding.com/sketch -->
    <title>text-direction-rtl-bld-reg-up</title>
    <desc>Created with Sketch.</desc>
    <defs></defs>
    <g id="Page-1" stroke="none" stroke-width="1" fill="none" fill-rule="evenodd" sketch:type="MSPage">
        <g id="text-direction-rtl-bld-reg-up" sketch:type="MSArtboardGroup" fill="#1D2D3C">
            <g id="Imported-Layers" sketch:type="MSLayerGroup" transform="translate(9.000000, 10.000000)">
                <path d="M9,0 L6.696,0 C4.878,0 3.404,1.182 3.404,3 C3.404,4.818 4.878,6 6.696,6 L8,6 L8,14 L10,14 L10,0 L9,0" id="Fill-1" sketch:type="MSShapeGroup"></path>
                <path d="M11,0 L12.96,0 L12.96,14 L11,14 L11,0 Z" id="Fill-2" sketch:type="MSShapeGroup"></path>
                <path d="M2.001,14 C1.7,14 1.402,13.864 1.205,13.606 C0.87,13.168 0.954,12.54 1.393,12.205 L3,11 L1.393,9.795 C0.954,9.46 0.87,8.832 1.205,8.394 C1.54,7.955 2.167,7.868 2.607,8.205 L6,11 L2.607,13.795 C2.426,13.934 2.213,14 2.001,14" id="Fill-3" sketch:type="MSShapeGroup"></path>
            </g>
        </g>
    </g>
</svg>