<?xml version="1.0" encoding="UTF-8" standalone="no"?>
<svg width="34px" height="34px" viewBox="0 0 34 34" version="1.1" xmlns="http://www.w3.org/2000/svg" xmlns:xlink="http://www.w3.org/1999/xlink" xmlns:sketch="http://www.bohemiancoding.com/sketch/ns">
    <!-- Generator: Sketch 3.3.2 (12043) - http://www.bohemiancoding.com/sketch -->
    <title>text-direction-ltr-bld-reg-up</title>
    <desc>Created with Sketch.</desc>
    <defs></defs>
    <g id="Page-1" stroke="none" stroke-width="1" fill="none" fill-rule="evenodd" sketch:type="MSPage">
        <g id="text-direction-ltr-bld-reg-up" sketch:type="MSArtboardGroup" fill="#1D2D3C">
            <g id="Imported-Layers" sketch:type="MSLayerGroup" transform="translate(10.000000, 10.000000)">
                <path d="M8,0 L10,0 L10,14 L8,14 L8,0 Z" id="Fill-1" sketch:type="MSShapeGroup"></path>
                <path d="M6,0 L3.696,0 C1.878,0 0.404,1.182 0.404,3 C0.404,4.818 1.878,6 3.696,6 L5,6 L5,14 L7,14 L7,0 L6,0" id="Fill-2" sketch:type="MSShapeGroup"></path>
                <path d="M15.959,14 C15.748,14 15.534,13.934 15.353,13.795 L12,11 L15.353,8.205 C15.792,7.868 16.419,7.955 16.755,8.394 C17.09,8.832 17.006,9.46 16.567,9.795 L15,11 L16.567,12.205 C17.006,12.54 17.09,13.168 16.755,13.606 C16.558,13.864 16.26,14 15.959,14" id="Fill-3" sketch:type="MSShapeGroup"></path>
            </g>
        </g>
    </g>
</svg>